{"glyphs":{"0":{"ha":706,"x_min":31,"x_max":675,"o":"m 675 456 q 597 101 675 214 q 351 -12 519 -12 q 31 456 31 -12 q 108 810 31 696 q 351 924 185 924 q 675 456 675 924 m 242 456 q 248 321 242 376 q 268 231 254 265 q 302 182 282 197 q 351 167 322 167 q 434 232 407 167 q 461 456 461 297 q 454 590 461 535 q 433 681 447 646 q 399 731 419 715 q 351 746 378 746 q 301 731 322 746 q 267 681 281 715 q 248 590 254 646 q 242 456 242 535 z "},"1":{"ha":706,"x_min":53,"x_max":524,"o":"m 524 0 l 310 0 l 310 608 l 313 665 q 271 628 289 642 l 158 539 l 53 674 l 351 910 l 524 910 l 524 0 z "},"2":{"ha":707,"x_min":28,"x_max":681,"o":"m 681 0 l 36 0 l 36 150 l 261 378 q 360 480 324 440 q 415 547 396 519 q 438 597 433 575 q 443 647 443 618 q 418 718 443 696 q 349 740 393 740 q 254 717 300 740 q 147 644 208 694 l 28 783 q 120 857 81 829 q 197 899 160 885 q 272 918 233 914 q 361 922 311 922 q 480 904 425 922 q 574 853 535 886 q 635 773 613 819 q 657 671 657 726 q 645 577 657 619 q 604 490 633 535 q 526 395 575 446 q 406 276 478 344 l 307 185 l 681 185 l 681 0 z "},"3":{"ha":707,"x_min":29,"x_max":672,"o":"m 646 699 q 593 549 646 610 q 497 481 554 503 q 672 271 672 440 q 577 60 672 132 q 301 -12 482 -12 q 33 42 150 -12 l 33 232 q 162 179 104 194 q 282 164 219 164 q 411 191 374 164 q 449 282 449 218 q 404 360 449 338 q 250 383 360 383 l 169 383 l 169 553 l 251 553 q 393 576 351 553 q 435 658 435 600 q 324 744 435 744 q 239 731 282 744 q 131 674 196 718 l 29 825 q 336 922 164 922 q 563 865 479 922 q 646 699 646 807 z "},"4":{"ha":706,"x_min":7,"x_max":700,"o":"m 700 183 l 594 183 l 594 0 l 385 0 l 385 183 l 7 183 l 7 332 l 401 910 l 594 910 l 594 356 l 700 356 l 700 183 m 385 356 l 385 492 q 385 533 385 503 q 388 593 386 563 q 389 629 388 613 l 388 628 q 358 579 374 603 l 213 356 l 385 356 z "},"5":{"ha":707,"x_min":47,"x_max":665,"o":"m 369 592 q 586 517 507 592 q 665 308 665 442 q 572 68 665 149 q 297 -12 479 -12 q 47 42 143 -12 l 47 235 q 174 183 114 199 q 292 167 233 167 q 449 293 449 167 q 285 413 449 413 q 217 406 256 413 q 150 392 179 400 l 64 438 l 99 910 l 604 910 l 604 725 l 288 725 l 274 582 l 276 583 q 319 589 296 586 q 369 592 342 592 z "},"6":{"ha":707,"x_min":31,"x_max":681,"o":"m 31 389 q 141 792 31 664 q 486 921 251 921 q 618 907 581 921 l 618 731 q 497 747 549 747 q 377 729 426 744 q 296 683 328 714 q 247 607 264 653 q 231 522 235 571 q 414 600 292 600 q 612 524 543 600 q 681 307 681 449 q 598 72 681 157 q 365 -12 515 -12 q 118 88 206 -12 q 31 389 31 188 m 361 165 q 472 306 472 165 q 447 398 472 365 q 365 431 421 431 q 278 399 314 431 q 242 322 242 367 q 277 208 242 251 q 361 165 313 165 z "},"7":{"ha":708,"x_min":21,"x_max":682,"o":"m 117 0 l 447 725 l 21 725 l 21 910 l 682 910 l 682 775 l 344 0 l 117 0 z "},"8":{"ha":708,"x_min":31,"x_max":678,"o":"m 354 922 q 569 863 489 922 q 649 694 649 803 q 610 567 649 622 q 508 481 572 511 q 633 377 588 438 q 678 242 678 317 q 653 138 678 185 q 587 58 629 92 q 485 6 544 25 q 354 -12 425 -12 q 117 51 203 -12 q 31 238 31 115 q 72 380 31 318 q 185 476 114 442 q 92 571 126 514 q 57 696 57 628 q 80 791 57 749 q 143 863 103 833 q 238 907 183 892 q 354 922 292 922 m 229 249 q 261 178 229 204 q 351 153 293 153 q 447 178 418 153 q 475 247 475 204 q 444 315 475 282 q 344 383 413 347 q 229 249 229 329 m 353 757 q 286 737 311 757 q 261 682 261 717 q 281 625 261 650 q 354 574 301 600 q 426 622 406 596 q 446 682 446 647 q 421 737 446 717 q 353 757 396 757 z "},"9":{"ha":708,"x_min":26,"x_max":678,"o":"m 678 519 q 567 118 678 249 q 219 -12 457 -12 q 147 -10 179 -12 q 89 -1 115 -7 l 89 178 q 207 161 151 161 q 404 219 340 161 q 474 383 463 272 q 410 331 446 349 q 288 307 363 307 q 97 383 167 307 q 26 600 26 458 q 108 835 26 750 q 340 921 190 921 q 479 893 417 921 q 586 813 542 865 q 654 687 631 761 q 678 519 678 613 m 343 743 q 233 603 233 743 q 259 510 233 543 q 340 478 285 478 q 388 487 365 478 q 428 511 411 496 q 454 546 444 526 q 464 586 464 565 q 431 699 464 654 q 343 743 399 743 z "},"\u0000":{"ha":0,"x_min":0,"x_max":0,"o":""}," ":{"ha":322,"x_min":0,"x_max":0,"o":""}," ":{"ha":322,"x_min":0,"x_max":0,"o":""},"!":{"ha":388,"x_min":174,"x_max":374,"o":"m 374 8 l 374 3 l 368 -8 l 357 -3 q 340 -8 347 -8 q 335 -3 340 -3 q 324 -19 335 -19 l 318 -19 q 290 8 314 -19 q 268 -14 290 -1 q 240 -3 249 -3 l 224 -3 l 218 31 l 218 92 q 240 192 218 129 l 251 192 q 257 186 257 192 l 268 192 l 285 192 l 285 208 l 290 208 q 374 8 374 133 m 318 753 l 318 531 q 315 399 318 465 q 307 264 313 333 q 290 242 290 264 l 285 242 q 257 281 257 249 q 240 269 256 281 l 235 269 q 179 714 203 313 q 174 808 179 788 q 229 869 182 839 q 274 831 240 850 l 279 831 q 296 853 279 853 q 318 753 318 853 z "},"\"":{"ha":519,"x_min":101,"x_max":446,"o":"m 424 690 l 417 681 l 408 688 l 406 676 q 392 665 393 669 q 394 654 394 664 l 394 643 l 385 629 l 358 643 q 317 726 339 671 q 296 856 296 781 q 299 911 296 882 q 307 972 301 940 q 321 993 315 978 q 372 969 367 979 q 385 1005 382 1000 q 392 1010 388 1010 q 418 989 406 1010 q 417 981 418 985 q 417 975 417 978 q 418 958 417 964 q 422 947 419 951 l 425 947 q 437 945 428 947 q 446 928 446 943 q 441 892 446 919 q 431 833 436 865 q 422 769 426 800 q 417 721 417 738 q 424 690 417 696 m 229 690 l 222 681 l 214 688 l 211 676 q 197 665 199 669 q 200 654 200 664 l 200 643 l 190 629 l 164 643 q 123 726 144 671 q 101 856 101 781 q 104 911 101 882 q 113 972 107 940 q 126 993 121 978 q 178 969 174 979 q 190 1005 188 1000 q 197 1010 193 1010 q 224 989 211 1010 q 223 981 224 985 q 222 975 222 978 q 224 958 222 964 q 228 947 225 951 l 231 947 q 242 945 233 947 q 251 928 251 943 q 247 892 251 919 q 237 833 242 865 q 227 769 232 800 q 222 721 222 738 q 229 690 222 696 z "},"#":{"ha":953,"x_min":22,"x_max":911,"o":"m 911 633 q 872 601 911 601 l 883 585 l 883 579 q 772 560 871 568 q 706 399 732 460 l 676 333 q 674 329 675 331 q 692 328 683 328 q 759 319 731 325 q 804 304 788 314 q 821 281 821 294 l 826 281 q 788 249 826 249 l 799 232 l 799 226 q 611 201 782 211 q 575 138 593 169 q 535 72 554 101 q 501 25 517 43 q 476 7 486 7 q 472 8 474 7 l 469 3 q 450 29 450 11 q 456 51 450 40 l 436 47 l 432 50 l 432 54 q 476 196 432 78 q 414 194 447 194 q 357 196 403 194 q 285 197 328 196 q 251 138 268 168 q 212 72 231 101 q 177 25 193 43 q 153 7 161 7 q 149 8 150 7 l 146 3 q 126 29 126 11 q 132 51 126 40 l 113 47 l 108 50 l 108 54 q 157 204 108 78 q 50 226 67 211 l 50 232 l 61 249 q 22 281 22 249 l 28 281 q 56 296 28 289 q 129 308 85 303 q 201 315 163 313 q 300 553 242 415 q 135 579 156 560 l 135 585 l 146 601 q 107 633 107 601 l 113 633 q 141 649 113 642 q 215 661 169 656 q 315 671 260 667 q 360 674 338 672 l 381 714 q 438 814 413 779 q 476 856 463 849 l 481 853 l 492 836 q 521 863 503 863 q 536 858 528 863 l 535 854 q 540 838 540 850 q 525 763 540 815 q 497 679 515 728 q 536 682 517 681 q 621 683 588 683 l 689 683 l 704 714 q 761 814 736 779 q 800 856 786 849 l 804 853 l 815 836 q 844 863 826 863 q 860 858 851 863 l 858 854 q 864 838 864 850 q 849 763 864 815 q 819 676 838 726 q 843 672 832 674 q 889 657 872 667 q 906 633 906 647 l 911 633 m 382 399 l 353 333 q 349 325 351 329 q 451 329 401 328 q 531 331 499 331 q 624 551 569 425 q 499 547 567 549 q 444 549 488 547 q 382 399 407 456 z "},"%":{"ha":1021,"x_min":54,"x_max":953,"o":"m 953 226 q 865 36 953 163 q 724 -18 788 -18 l 718 -18 q 554 90 654 -18 q 522 139 522 110 l 522 183 q 610 379 522 276 q 631 390 624 390 l 642 385 q 740 413 686 413 q 908 319 861 413 q 953 226 953 292 m 485 711 q 256 467 428 467 l 250 467 q 81 581 185 467 q 54 635 54 593 l 54 668 q 142 864 54 761 q 163 875 156 875 l 174 869 q 272 897 218 897 q 440 804 393 897 q 485 711 485 776 m 265 -115 q 246 -89 246 -107 q 251 -67 246 -78 l 232 -71 l 228 -68 l 228 -65 q 472 564 228 -12 l 571 775 q 689 976 657 963 l 693 974 l 704 957 q 733 983 715 983 q 749 979 740 983 l 747 975 q 753 958 753 971 q 739 892 753 939 q 703 785 725 844 q 656 662 682 726 q 608 541 631 597 q 569 446 586 485 q 549 399 553 407 l 519 333 q 491 273 510 314 q 447 183 472 232 q 395 81 422 133 q 343 -14 368 29 q 299 -84 318 -57 q 271 -111 279 -111 l 268 -110 l 265 -115 m 729 286 l 675 144 l 685 139 q 821 243 821 163 q 729 286 815 265 m 261 771 l 207 629 l 217 625 q 353 728 353 649 q 261 771 347 750 z "},"'":{"ha":332,"x_min":101,"x_max":251,"o":"m 229 690 l 222 681 l 214 688 l 211 676 q 197 665 199 669 q 200 654 200 664 l 200 643 l 190 629 l 164 643 q 123 726 144 671 q 101 856 101 781 q 104 911 101 882 q 113 972 107 940 q 126 993 121 978 q 178 969 174 979 q 190 1005 188 1000 q 197 1010 193 1010 q 224 989 211 1010 q 223 981 224 985 q 222 975 222 978 q 224 958 222 964 q 228 947 225 951 l 231 947 q 242 945 233 947 q 251 928 251 943 q 247 892 251 919 q 237 833 242 865 q 227 769 232 800 q 222 721 222 738 q 229 690 222 696 z "},"(":{"ha":450,"x_min":22,"x_max":446,"o":"m 446 1010 q 424 993 424 1001 q 446 960 424 982 l 446 949 q 428 917 446 938 q 379 860 411 896 q 202 602 260 729 q 144 353 144 475 q 189 153 144 251 q 319 -40 233 56 l 314 -40 q 264 15 264 -3 l 258 15 l 258 10 q 353 -90 258 0 q 347 -96 353 -96 l 364 -124 l 364 -129 q 353 -140 361 -140 q 147 46 272 -140 q 22 397 22 231 q 340 1049 57 776 q 363 1054 350 1054 l 368 1054 q 401 1026 368 1032 q 435 1043 407 1043 q 446 1010 446 1024 z "},")":{"ha":483,"x_min":8,"x_max":432,"o":"m 8 -96 q 31 -79 31 -87 q 8 -46 31 -68 l 8 -35 q 25 -3 8 -24 q 75 54 42 18 q 251 312 193 185 q 310 561 310 439 q 265 760 310 663 q 135 954 221 858 l 140 954 q 190 899 190 917 l 196 899 l 196 904 q 101 1004 196 914 q 107 1010 101 1010 l 90 1038 l 90 1043 q 101 1054 93 1054 q 307 868 182 1054 q 432 517 432 682 q 114 -135 397 138 q 92 -140 104 -140 l 86 -140 q 53 -112 86 -119 q 19 -129 46 -129 q 8 -96 8 -110 z "},"*":{"ha":757,"x_min":19,"x_max":699,"o":"m 619 233 q 596 222 608 222 q 569 236 583 222 l 563 213 q 451 282 543 213 q 422 306 438 293 l 422 294 q 396 142 417 164 l 390 142 l 374 153 q 342 114 374 114 l 342 119 q 304 303 318 119 l 296 294 q 172 200 201 201 l 168 204 l 164 224 q 133 208 149 208 q 114 217 124 208 l 118 221 q 115 228 115 224 q 147 292 115 246 q 222 389 174 329 q 200 390 211 389 q 47 417 69 396 l 47 422 l 58 439 q 19 471 19 439 l 25 471 q 82 494 25 486 q 207 508 126 501 l 200 515 q 131 592 153 561 q 107 639 108 624 l 111 643 l 131 649 q 114 678 114 663 q 124 699 114 689 l 128 694 q 133 696 129 696 q 197 664 150 696 q 292 593 235 639 q 294 657 292 626 q 303 726 297 697 q 318 771 308 754 q 342 788 328 788 l 342 793 q 374 754 374 793 l 390 765 l 396 765 q 419 615 410 749 q 488 678 456 651 q 558 714 531 715 q 575 708 569 714 l 579 713 q 589 690 589 703 q 575 663 589 676 l 594 660 l 599 656 q 528 544 599 636 q 508 521 518 533 q 564 518 538 519 q 631 510 603 515 q 676 494 660 504 q 693 471 693 485 l 699 471 q 660 439 699 439 l 671 422 l 671 417 q 522 392 656 401 q 585 324 558 356 q 621 254 622 279 q 615 238 621 243 l 619 233 z "},"+":{"ha":743,"x_min":19,"x_max":699,"o":"m 342 793 q 374 754 374 793 l 390 765 l 396 765 q 425 521 415 744 l 479 521 q 564 518 525 521 q 631 510 603 515 q 676 494 660 504 q 693 471 693 485 l 699 471 q 660 439 699 439 l 671 422 l 671 417 q 425 386 650 397 q 422 294 424 350 q 396 142 417 164 l 390 142 l 374 153 q 342 114 374 114 l 342 119 q 301 349 315 119 q 299 386 300 368 q 200 390 261 388 q 47 417 69 396 l 47 422 l 58 439 q 19 471 19 439 l 25 471 q 82 495 25 486 q 254 511 139 504 q 292 513 274 513 l 292 572 q 294 658 292 618 q 303 726 297 697 q 318 771 308 754 q 342 788 328 788 l 342 793 z "},",":{"ha":269,"x_min":22,"x_max":217,"o":"m 49 -147 l 22 -139 l 24 -122 q 42 -107 35 -107 l 42 -104 q 39 -90 42 -101 l 44 -79 l 35 -78 l 35 -67 l 38 -67 q 79 7 72 -67 q 26 136 26 119 l 26 138 q 43 153 38 153 l 44 156 q 33 193 44 164 q 53 225 36 221 l 61 215 q 83 193 69 208 q 121 233 86 203 q 142 221 133 221 q 217 39 217 125 q 199 -29 217 3 q 156 -86 182 -61 q 101 -127 131 -111 q 49 -147 72 -143 z "},"-":{"ha":731,"x_min":19,"x_max":699,"o":"m 699 471 q 660 439 699 439 l 671 422 l 671 417 q 356 385 647 394 q 306 386 344 385 q 200 390 267 388 q 47 417 69 396 l 47 422 l 58 439 q 19 471 19 439 l 25 471 q 82 495 25 486 q 254 511 139 504 q 359 519 321 515 q 408 521 397 522 l 479 521 q 564 518 525 521 q 631 510 603 515 q 676 494 660 504 q 693 471 693 485 l 699 471 z "},".":{"ha":288,"x_min":22,"x_max":257,"o":"m 204 7 q 167 -3 190 -3 q 43 40 119 -3 l 42 43 l 60 53 l 58 57 q 22 96 56 65 l 39 135 q 138 163 107 139 q 171 151 158 151 q 176 153 175 151 l 182 143 l 182 118 q 201 122 192 122 q 242 92 224 122 q 247 93 243 93 q 257 86 254 93 q 204 7 250 29 z "},"/":{"ha":619,"x_min":24,"x_max":549,"o":"m 61 -115 q 42 -89 42 -107 q 47 -67 42 -78 l 28 -71 l 24 -68 l 24 -65 q 268 564 24 -12 l 367 775 q 485 976 453 963 l 489 974 l 500 957 q 529 983 511 983 q 544 979 536 983 l 543 975 q 549 958 549 971 q 535 892 549 939 q 499 785 521 844 q 452 662 478 726 q 404 541 426 597 q 365 446 382 485 q 344 399 349 407 l 315 333 q 287 273 306 314 q 243 183 268 232 q 191 81 218 133 q 139 -14 164 29 q 94 -84 114 -57 q 67 -111 75 -111 l 64 -110 l 61 -115 z "},":":{"ha":339,"x_min":42,"x_max":276,"o":"m 224 167 q 186 157 210 157 q 63 200 139 157 l 61 203 l 79 213 l 78 217 q 42 256 75 225 l 58 294 q 157 322 126 299 q 190 311 178 311 q 196 313 194 311 l 201 303 l 201 278 q 221 282 211 282 q 261 251 243 282 q 267 253 263 253 q 276 246 274 253 q 224 167 269 189 m 224 529 q 186 519 210 519 q 63 563 139 519 l 61 565 l 79 575 l 78 579 q 42 618 75 588 l 58 657 q 157 685 126 661 q 190 674 178 674 q 196 675 194 674 l 201 665 l 201 640 q 221 644 211 644 q 261 614 243 644 q 267 615 263 615 q 276 608 274 615 q 224 529 269 551 z "},";":{"ha":363,"x_min":42,"x_max":281,"o":"m 113 33 l 86 42 l 88 58 q 106 74 99 74 l 106 76 q 103 90 106 79 l 108 101 l 99 103 l 99 114 l 101 114 q 143 188 136 114 q 99 290 99 274 l 99 292 q 115 307 110 307 l 117 310 q 106 347 117 318 q 125 379 108 375 l 133 369 q 156 347 142 363 q 193 388 158 357 q 214 375 206 375 q 281 219 281 306 q 263 151 281 183 q 220 94 246 119 q 165 53 194 69 q 113 33 136 38 m 224 529 q 186 519 210 519 q 63 563 139 519 l 61 565 l 79 575 l 78 579 q 42 618 75 588 l 58 657 q 157 685 126 661 q 190 674 178 674 q 196 675 194 674 l 201 665 l 201 640 q 221 644 211 644 q 261 614 243 644 q 267 615 263 615 q 276 608 274 615 q 224 529 269 551 z "},"<":{"ha":674,"x_min":47,"x_max":589,"o":"m 119 496 q 174 542 154 525 q 201 564 194 558 l 372 688 q 475 754 426 726 q 551 782 524 782 q 575 772 567 782 l 579 776 q 586 757 586 765 q 567 728 586 743 l 586 721 l 589 717 q 240 422 583 686 l 235 418 l 240 414 q 589 121 582 153 l 586 117 l 567 110 q 586 81 586 94 q 579 61 586 72 l 575 64 q 553 54 567 54 q 478 81 525 54 q 372 150 431 107 l 201 274 q 121 342 186 285 l 82 388 l 82 429 l 47 447 q 119 496 115 499 z "},"=":{"ha":688,"x_min":19,"x_max":643,"o":"m 643 622 q 604 590 643 590 l 615 574 l 615 568 q 356 536 592 546 q 306 538 344 536 q 200 542 267 539 q 47 568 69 547 l 47 574 l 58 590 q 19 622 19 590 l 25 622 q 82 647 25 638 q 254 663 139 656 q 359 670 321 667 q 408 672 397 674 l 424 672 q 576 661 515 672 q 638 622 636 650 l 643 622 m 643 360 q 604 328 643 328 l 615 311 l 615 306 q 356 274 592 283 q 306 275 344 274 q 200 279 267 276 q 47 306 69 285 l 47 311 l 58 328 q 19 360 19 328 l 25 360 q 82 384 25 375 q 254 400 139 393 q 359 408 321 404 q 408 410 397 411 l 424 410 q 508 407 469 410 q 576 399 547 404 q 621 383 604 393 q 638 360 638 374 l 643 360 z "},">":{"ha":675,"x_min":49,"x_max":590,"o":"m 517 496 q 538 485 519 496 q 590 447 556 474 l 554 429 l 554 388 l 517 342 l 436 274 l 265 150 q 160 81 207 107 q 85 54 113 54 q 63 64 68 54 l 58 61 q 51 81 51 69 q 71 110 51 96 l 51 117 l 49 121 q 397 414 56 153 l 403 418 l 397 422 q 49 717 54 686 l 51 721 l 71 728 q 51 757 51 742 q 58 776 51 768 l 63 772 q 86 782 71 782 q 161 755 111 782 q 265 688 211 728 l 436 564 l 517 496 z "},"?":{"ha":643,"x_min":154,"x_max":571,"o":"m 571 625 q 560 592 567 592 q 565 575 565 582 q 415 386 565 444 q 299 292 332 386 q 276 225 276 233 l 271 225 q 243 269 243 236 l 238 269 l 238 253 l 232 253 q 204 297 224 253 l 204 331 q 299 475 204 410 q 438 619 438 521 l 438 631 q 321 753 438 703 q 299 769 321 760 l 293 731 l 293 714 q 254 514 293 514 l 249 525 l 238 519 l 232 519 l 226 553 l 215 547 l 210 547 q 154 869 168 547 q 215 942 154 914 q 265 919 231 942 q 282 925 275 925 q 446 818 388 863 q 532 740 504 774 q 565 678 560 706 q 571 625 571 651 m 343 19 q 304 -64 343 -17 l 288 -53 l 249 -58 q 243 -25 243 -51 l 238 -25 l 221 -36 l 215 -36 q 193 -14 206 -36 l 182 -19 l 171 -19 l 171 -14 q 204 164 186 118 l 249 153 l 249 175 l 254 175 q 299 114 268 168 q 314 74 307 86 q 327 54 321 61 q 338 41 333 47 q 343 19 342 35 m 304 331 l 299 331 q 293 314 299 324 l 293 308 l 299 308 q 304 325 299 315 l 304 331 z "},"@":{"ha":867,"x_min":42,"x_max":842,"o":"m 821 493 l 814 493 l 814 458 l 821 458 l 821 493 m 800 601 l 794 601 l 794 589 q 807 507 807 540 l 814 507 l 814 526 q 800 601 800 594 m 679 81 l 551 132 q 326 200 399 200 q 310 183 326 193 q 228 293 258 204 q 247 308 235 300 q 275 324 260 315 l 288 324 q 450 285 367 324 q 589 403 589 339 q 482 613 589 481 q 351 485 351 542 q 415 425 374 425 l 428 425 q 450 464 440 425 l 450 481 l 465 471 q 475 493 465 493 q 500 417 488 476 q 450 340 500 346 l 410 340 q 254 468 353 340 q 244 501 244 482 q 436 726 244 624 q 461 743 436 732 q 488 722 461 731 q 513 731 500 731 q 688 425 688 515 q 597 251 688 281 q 543 231 543 235 l 632 188 q 765 522 740 294 l 765 556 q 525 803 765 713 l 482 813 q 175 472 290 813 l 151 331 q 367 97 190 97 l 383 97 q 496 111 446 97 q 557 75 528 108 l 546 56 l 539 35 l 508 31 l 542 -1 q 432 -19 488 -19 q 353 -3 396 -19 q 266 40 310 13 q 182 106 222 68 q 110 189 142 144 q 60 281 79 233 q 42 378 42 329 q 254 856 42 676 q 397 897 314 897 l 514 897 q 542 863 528 893 q 499 849 513 849 l 499 842 q 835 542 735 842 q 842 472 842 503 l 842 453 q 729 135 842 274 l 679 81 z "},"[":{"ha":513,"x_min":78,"x_max":486,"o":"m 486 -74 l 486 -79 q 458 -96 486 -93 l 458 -101 q 486 -118 486 -104 q 233 -185 419 -185 l 167 -179 l 167 -174 l 172 -162 q 122 -135 122 -154 l 128 -107 q 94 -68 100 -107 q 83 -57 83 -68 q 111 -35 83 -50 l 106 -24 q 85 651 92 394 q 78 1004 78 907 l 78 1032 q 128 1093 89 1093 q 161 1076 133 1076 l 167 1076 l 189 1093 q 206 1071 204 1093 q 442 1032 442 1056 q 475 1010 475 1013 q 442 999 456 999 l 442 993 l 464 988 l 464 971 q 353 926 464 954 q 302 918 319 921 q 283 915 285 915 l 217 915 l 217 743 q 214 332 217 524 q 206 -29 211 140 q 486 -74 425 -29 z "},"\\":{"ha":619,"x_min":54,"x_max":581,"o":"m 542 -115 l 540 -110 l 538 -111 q 508 -83 528 -111 q 464 -13 489 -56 q 412 81 439 29 q 360 183 385 133 q 315 272 335 232 q 288 333 296 313 l 260 399 q 239 446 256 407 q 199 540 222 485 q 151 659 176 594 q 103 783 125 724 q 68 889 82 842 q 54 957 54 936 q 61 975 54 971 l 58 979 q 74 983 67 983 q 103 957 92 983 l 114 974 l 119 976 q 236 775 147 964 l 335 564 q 581 -65 581 -15 l 581 -68 l 575 -71 l 556 -67 q 560 -78 558 -74 q 561 -89 561 -83 q 542 -115 561 -107 z "},"]":{"ha":513,"x_min":38,"x_max":446,"o":"m 38 982 l 38 988 q 65 1004 38 1001 l 65 1010 q 38 1026 38 1013 q 290 1093 104 1093 l 357 1088 l 357 1082 l 351 1071 q 401 1043 401 1063 l 396 1015 q 429 976 424 1015 q 440 965 440 976 q 413 943 440 958 l 418 932 q 439 258 432 514 q 446 -96 446 1 l 446 -124 q 396 -185 435 -185 q 363 -168 389 -168 l 357 -168 l 335 -185 q 318 -162 319 -185 q 82 -124 82 -147 q 49 -101 49 -106 q 82 -90 68 -90 l 82 -85 l 60 -79 l 60 -62 q 171 -18 60 -46 q 222 -10 204 -12 q 240 -7 239 -7 l 307 -7 l 307 165 q 310 576 307 385 q 318 938 313 768 q 38 982 99 938 z "},"^":{"ha":568,"x_min":53,"x_max":506,"o":"m 117 874 l 115 876 q 106 872 111 872 q 53 900 89 872 l 56 901 q 56 907 56 903 q 61 926 56 913 q 75 957 67 940 q 94 992 83 974 q 117 1025 106 1010 l 183 1117 l 222 1164 l 254 1190 l 272 1190 l 290 1229 q 347 1150 349 1151 l 440 1025 q 465 988 453 1008 q 485 951 476 968 q 499 921 493 933 q 504 904 504 908 l 504 903 l 506 901 q 450 872 468 872 q 442 876 443 872 l 440 875 q 279 1051 396 899 q 117 874 160 897 z "},"_":{"ha":699,"x_min":-58,"x_max":760,"o":"m 760 83 q 721 51 760 51 l 732 35 l 732 29 q 278 -3 708 7 q 228 -1 267 -3 q 122 3 189 0 q -31 29 -8 8 l -31 35 l -19 51 q -58 83 -58 51 l -53 83 q 4 108 -53 99 q 176 124 61 117 q 281 131 243 128 q 331 133 319 135 l 540 133 q 625 131 586 133 q 692 122 664 128 q 738 107 721 117 q 754 83 754 97 l 760 83 z "},"`":{"ha":250,"x_min":6,"x_max":203,"o":"m 6 1106 q 19 1118 14 1115 q 25 1124 25 1121 q 13 1161 25 1136 q 33 1192 17 1190 q 63 1161 36 1192 q 101 1200 64 1169 q 122 1188 114 1188 q 163 1108 147 1144 q 188 1041 179 1072 q 200 981 197 1010 q 203 924 203 953 q 197 861 203 883 l 178 840 l 163 849 q 157 867 157 860 l 157 871 l 142 875 l 133 885 l 128 875 l 118 881 q 119 888 119 882 q 101 931 119 896 q 63 1003 83 965 q 24 1072 42 1042 q 6 1106 6 1103 z "},"{":{"ha":461,"x_min":15,"x_max":432,"o":"m 432 -67 l 432 -72 q 399 -89 432 -83 l 399 -94 l 426 -94 l 426 -122 q 343 -150 422 -122 q 138 6 225 -150 q 65 314 114 314 q 51 351 65 331 q 15 392 38 372 l 15 397 q 82 442 56 442 l 110 425 l 115 425 q 132 503 132 472 q 99 844 132 538 q 160 992 111 946 q 299 1039 210 1039 q 310 1028 299 1028 l 365 1028 q 388 1000 376 1025 q 349 989 357 989 q 374 965 365 974 q 388 951 383 956 q 392 943 392 946 q 393 939 393 940 l 393 922 l 376 900 l 349 906 q 238 806 238 890 q 246 715 243 778 q 249 553 249 653 l 249 492 q 210 347 249 429 q 271 -6 239 347 q 338 -44 293 -44 l 393 -44 q 432 -67 414 -67 z "},"|":{"ha":304,"x_min":88,"x_max":224,"o":"m 174 -93 q 142 -54 142 -93 l 125 -65 l 119 -65 q 88 613 97 -42 q 89 669 88 624 q 93 794 90 715 q 119 976 99 954 l 125 976 l 142 965 q 174 1004 142 1004 l 174 999 q 189 970 182 999 q 201 897 196 942 q 211 794 207 851 q 218 681 215 738 q 222 575 221 625 q 224 492 224 525 l 224 419 q 223 350 224 396 q 219 247 222 304 q 213 131 217 190 q 204 24 210 72 q 191 -56 199 -25 q 174 -87 183 -87 l 174 -93 z "},"}":{"ha":461,"x_min":15,"x_max":432,"o":"m 15 -67 q 54 -44 33 -67 l 110 -44 q 176 -6 154 -44 q 238 347 208 347 q 199 492 199 429 l 199 553 q 201 715 199 653 q 210 806 204 778 q 99 906 210 890 l 71 900 l 54 922 l 54 939 q 55 943 54 940 q 60 951 56 946 q 73 965 64 956 q 99 989 82 974 q 60 1000 90 989 q 82 1028 71 1025 l 138 1028 q 149 1039 149 1028 q 287 992 238 1039 q 349 844 336 946 q 315 503 315 538 q 332 425 315 472 l 338 425 l 365 442 q 432 397 392 442 l 432 392 q 396 351 410 372 q 382 314 382 331 q 310 6 332 314 q 104 -150 222 -150 q 21 -122 25 -122 l 21 -94 l 49 -94 l 49 -89 q 15 -72 15 -83 l 15 -67 z "},"~":{"ha":658,"x_min":13,"x_max":631,"o":"m 592 581 l 593 583 l 631 565 q 617 472 625 554 q 447 349 564 361 l 432 349 q 271 439 308 349 q 197 529 231 529 q 136 489 156 529 l 111 436 q 74 407 82 428 l 60 414 q 51 426 53 415 l 50 424 l 13 442 q 26 535 18 453 q 192 657 85 657 q 331 567 290 657 q 438 478 368 478 q 507 518 488 478 l 532 571 q 569 600 561 579 l 585 594 q 592 581 589 592 z "},"·":{"ha":288,"x_min":22,"x_max":257,"o":"m 204 353 q 167 343 190 343 q 43 386 119 343 l 42 389 l 60 399 l 58 403 q 22 442 56 411 l 39 481 q 138 508 107 485 q 171 497 158 497 q 176 499 175 497 l 182 489 l 182 464 q 201 468 192 468 q 242 438 224 468 q 247 439 243 439 q 257 432 254 439 q 204 353 250 375 z "},"×":{"ha":599,"x_min":40,"x_max":551,"o":"m 533 700 q 543 679 543 690 q 528 650 543 665 l 547 644 l 551 640 q 393 453 550 615 l 432 413 q 516 313 483 358 q 549 240 549 268 q 542 222 549 229 l 546 218 q 525 210 535 210 q 496 225 510 210 l 492 206 l 488 201 q 297 360 460 203 l 228 299 q 99 213 129 213 l 94 215 l 92 236 q 63 221 74 221 q 40 232 51 221 l 44 236 q 42 242 42 239 q 78 301 42 257 q 183 422 114 346 l 210 450 l 144 524 q 80 606 100 572 q 58 654 60 639 l 63 658 l 82 661 q 68 688 68 675 q 79 711 68 700 l 82 707 q 88 708 83 708 q 149 674 104 710 q 269 569 194 639 l 296 544 l 339 585 q 440 669 394 638 q 513 703 486 701 q 529 696 522 703 l 533 700 z "},"÷":{"ha":776,"x_min":36,"x_max":715,"o":"m 440 154 q 403 144 426 144 q 279 188 356 144 l 278 190 l 296 200 l 294 204 q 258 243 292 213 l 275 282 q 374 310 343 286 q 407 299 394 299 q 413 300 411 299 l 418 290 l 418 265 q 438 269 428 269 q 479 239 461 269 q 485 240 481 240 q 493 233 490 240 q 440 154 486 176 m 440 600 q 403 590 426 590 q 279 633 356 590 l 278 636 l 296 646 l 294 650 q 258 689 292 658 l 275 728 q 374 756 343 732 q 407 744 394 744 q 413 746 411 744 l 418 736 l 418 711 q 438 715 428 715 q 479 685 461 715 q 485 686 481 686 q 493 679 490 686 q 440 600 486 622 m 715 468 q 676 436 715 436 l 688 419 l 688 414 q 303 382 664 392 q 261 383 296 382 q 186 388 226 385 q 110 398 146 392 q 64 414 74 404 l 64 419 l 75 436 q 36 468 36 436 l 42 468 q 63 483 42 476 q 115 496 83 490 q 185 506 147 501 q 258 513 224 510 q 320 517 293 515 q 356 518 347 518 l 551 518 q 593 515 567 518 q 646 507 619 513 q 691 492 672 501 q 710 468 710 482 l 715 468 z "},"­":{"ha":515,"x_min":19,"x_max":476,"o":"m 476 471 q 438 439 476 439 l 449 422 l 449 417 q 217 385 425 394 q 183 386 207 385 q 133 391 160 388 q 83 401 107 394 q 47 417 58 407 l 47 422 l 58 439 q 19 471 19 439 l 25 471 q 269 521 25 497 l 340 521 l 361 518 q 406 510 382 515 q 451 494 431 504 q 471 471 471 485 l 476 471 z "},"‐":{"ha":515,"x_min":19,"x_max":476,"o":"m 476 471 q 438 439 476 439 l 449 422 l 449 417 q 217 385 425 394 q 183 386 207 385 q 133 391 160 388 q 83 401 107 394 q 47 417 58 407 l 47 422 l 58 439 q 19 471 19 439 l 25 471 q 269 521 25 497 l 340 521 l 361 518 q 406 510 382 515 q 451 494 431 504 q 471 471 471 485 l 476 471 z "},"–":{"ha":871,"x_min":19,"x_max":838,"o":"m 838 471 q 799 439 838 439 l 810 422 l 810 417 q 356 385 786 394 q 306 386 344 385 q 200 390 267 388 q 47 417 69 396 l 47 422 l 58 439 q 19 471 19 439 l 25 471 q 82 495 25 486 q 254 511 139 504 q 359 519 321 515 q 408 521 397 522 l 618 521 q 703 518 664 521 q 770 510 742 515 q 815 494 799 504 q 832 471 832 485 l 838 471 z "},"—":{"ha":1206,"x_min":19,"x_max":1185,"o":"m 1185 471 q 1146 439 1185 439 l 1157 422 l 1157 417 q 842 385 1133 394 q 731 386 831 385 q 443 390 632 388 q 47 417 69 397 l 47 422 l 58 439 q 19 471 19 439 l 25 471 q 254 511 25 499 q 724 519 565 517 q 894 521 883 521 l 965 521 q 1050 518 1011 521 q 1117 510 1089 515 q 1163 494 1146 504 q 1179 471 1179 485 l 1185 471 z "},"‘":{"ha":403,"x_min":101,"x_max":296,"o":"m 269 994 l 296 986 l 294 969 q 276 954 283 954 l 275 951 q 279 938 275 946 l 274 926 l 283 925 l 283 914 l 281 914 q 239 840 246 914 q 292 711 292 728 l 292 710 q 274 694 279 694 l 274 692 q 285 654 274 683 q 265 622 282 626 l 256 631 q 235 654 249 639 q 197 614 232 644 q 176 626 185 626 q 101 808 101 722 q 119 876 101 844 q 162 933 136 908 q 217 974 188 958 q 269 994 246 990 z "},"’":{"ha":403,"x_min":101,"x_max":296,"o":"m 128 614 l 101 622 l 103 639 q 121 654 114 654 l 121 657 q 118 671 121 660 l 124 682 l 114 683 l 114 694 l 117 694 q 158 768 151 694 q 106 897 106 881 l 106 899 q 122 914 117 914 l 124 917 q 113 954 124 925 q 132 986 115 982 l 140 976 q 163 954 149 969 q 200 994 165 964 q 221 982 213 982 q 296 800 296 886 q 278 732 296 764 q 235 675 261 700 q 181 634 210 650 q 128 614 151 618 z "},"“":{"ha":590,"x_min":101,"x_max":528,"o":"m 269 994 l 296 986 l 294 969 q 276 954 283 954 l 275 951 q 279 938 275 946 l 274 926 l 283 925 l 283 914 l 281 914 q 239 840 246 914 q 292 711 292 728 l 292 710 q 274 694 279 694 l 274 692 q 285 654 274 683 q 265 622 282 626 l 256 631 q 235 654 249 639 q 197 614 232 644 q 176 626 185 626 q 101 808 101 722 q 119 876 101 844 q 162 933 136 908 q 217 974 188 958 q 269 994 246 990 m 501 994 l 528 986 l 526 969 q 508 954 515 954 l 507 951 q 511 938 507 946 l 506 926 l 515 925 l 515 914 l 513 914 q 471 840 478 914 q 524 711 524 728 l 524 710 q 506 694 511 694 l 506 692 q 517 654 506 683 q 497 622 514 626 l 488 631 q 467 654 481 639 q 429 614 464 644 q 408 626 417 626 q 333 808 333 722 q 351 876 333 844 q 394 933 368 908 q 449 974 419 958 q 501 994 478 990 z "},"”":{"ha":590,"x_min":101,"x_max":528,"o":"m 360 614 l 333 622 l 335 639 q 353 654 346 654 l 353 657 q 350 671 353 660 l 356 682 l 346 683 l 346 694 l 349 694 q 390 768 383 694 q 338 897 338 881 l 338 899 q 354 914 349 914 l 356 917 q 344 954 356 925 q 364 986 347 982 l 372 976 q 394 954 381 969 q 432 994 397 964 q 453 982 444 982 q 528 800 528 886 q 510 732 528 764 q 467 675 493 700 q 413 634 442 650 q 360 614 383 618 m 128 614 l 101 622 l 103 639 q 121 654 114 654 l 121 657 q 118 671 121 660 l 124 682 l 114 683 l 114 694 l 117 694 q 158 768 151 694 q 106 897 106 881 l 106 899 q 122 914 117 914 l 124 917 q 113 954 124 925 q 132 986 115 982 l 140 976 q 163 954 149 969 q 200 994 165 964 q 221 982 213 982 q 296 800 296 886 q 278 732 296 764 q 235 675 261 700 q 181 634 210 650 q 128 614 151 618 z "},"অ":{"ha":989,"x_min":-15,"x_max":1017,"o":"m 943 31 q 742 226 908 31 q 492 53 656 53 l 442 53 q 72 238 249 53 q 17 336 17 318 l 22 336 q 13 368 13 354 l 50 357 l 56 368 q 246 221 78 368 q 393 161 344 161 q 622 390 622 204 q 611 401 611 390 q 617 439 611 411 q 458 696 581 590 q 300 478 300 539 q 356 390 300 432 l 393 390 q 458 467 438 390 l 431 483 l 415 483 l 415 510 q 436 515 432 515 q 404 532 436 525 q 426 569 404 561 l 447 569 q 474 561 456 569 q 513 537 493 553 q 548 497 533 521 q 563 439 563 472 q 426 249 510 249 l 388 249 q 164 422 301 249 q 156 477 158 449 q 153 538 153 506 q 268 750 153 610 q 251 756 258 756 q 96 763 163 757 q -15 779 29 768 q 56 864 -15 864 l 818 864 q 856 881 840 881 q 861 864 861 871 l 974 864 q 996 832 996 854 q 963 821 971 821 q 1017 771 1017 781 l 1017 744 q 1006 733 1014 733 l 957 733 l 932 728 q 933 685 932 715 q 938 608 935 656 q 933 329 935 436 q 932 178 932 222 l 926 178 q 944 146 935 163 q 965 113 954 129 l 965 101 l 960 101 l 938 118 l 938 113 q 965 42 950 100 q 943 31 950 31 m 801 368 l 801 374 q 785 728 785 624 l 775 733 l 671 733 l 606 739 l 606 733 q 769 407 769 551 q 796 368 782 407 l 801 368 z "},"আ":{"ha":1239,"x_min":-15,"x_max":1313,"o":"m 801 368 l 801 374 q 785 728 785 624 l 775 733 l 643 733 l 606 739 l 606 733 q 769 407 769 551 q 796 368 782 407 l 801 368 m 938 671 l 938 178 l 926 178 q 938 156 928 175 q 971 101 949 136 l 960 96 q 938 118 960 106 l 938 113 q 965 42 950 100 q 943 31 950 31 q 742 228 906 31 q 469 47 654 47 q 258 95 357 47 q 72 243 158 143 q 31 301 43 276 q 17 336 18 325 l 22 336 q 13 368 13 354 l 50 358 l 56 368 q 246 222 76 368 q 393 161 347 161 q 622 390 622 204 q 611 401 611 390 q 617 439 611 411 q 458 696 592 568 q 300 478 300 539 q 356 390 300 432 l 393 390 q 458 467 438 390 q 436 483 436 476 q 415 478 426 478 l 415 510 q 436 515 432 515 q 404 532 436 525 q 426 571 404 561 l 447 571 q 473 563 454 571 q 512 540 492 556 q 547 499 532 524 q 563 439 563 474 q 426 249 510 249 l 388 249 q 164 424 299 249 q 156 478 158 450 q 153 538 153 506 q 268 750 153 610 q 251 756 258 756 q -15 793 85 756 q 56 849 -15 849 q 403 860 214 856 q 818 864 593 864 q 856 881 840 881 q 889 864 861 864 l 960 864 q 982 832 982 854 q 960 826 972 826 q 969 810 960 811 l 1035 810 l 1035 832 q 1096 919 1035 886 q 1133 886 1114 896 l 1133 881 l 1150 881 q 1161 903 1150 903 q 1188 869 1188 903 l 1188 843 l 1264 860 q 1290 826 1285 849 q 1258 815 1265 815 l 1258 804 q 1272 801 1263 804 q 1290 790 1281 797 q 1306 772 1299 782 q 1313 750 1313 763 q 1296 724 1308 724 q 1263 726 1278 725 q 1235 726 1247 726 q 1188 722 1200 726 l 1188 631 q 1150 4 1179 4 q 1144 -12 1144 4 l 1128 -12 l 1128 -1 l 1117 -7 l 1111 -7 l 1106 31 l 1101 31 q 1090 15 1101 15 q 1058 169 1075 15 q 1040 631 1040 324 l 938 671 z "},"ই":{"ha":697,"x_min":-17,"x_max":888,"o":"m 888 -46 l 888 -51 q 865 -68 888 -68 q 673 42 767 -4 q 488 118 579 88 q 304 165 396 149 q 119 188 213 182 q 103 182 110 182 q 49 221 86 221 l 49 232 q 60 258 60 250 l 32 258 l 11 292 q 0 303 0 292 q 97 357 31 357 q 381 303 199 357 q 539 482 539 378 q 403 711 539 608 q 267 536 267 567 q 315 499 281 499 q 364 586 328 499 l 369 586 l 381 581 q 397 596 381 588 q 425 536 411 596 q 440 531 440 536 q 338 368 408 368 q 131 515 249 368 q 119 558 119 535 l 119 590 q 207 754 119 639 q -17 803 114 754 q -6 836 -17 825 q 26 852 6 847 q 74 858 46 857 q 136 858 101 858 l 289 858 q 414 994 344 864 q 419 1043 419 1021 q 343 1125 399 1125 l 332 1125 q 174 1000 258 1125 l 168 1000 l 174 1010 l 174 1015 l 168 1015 q 151 967 168 1010 l 119 972 l 125 1010 l 97 989 l 76 1021 q 201 1217 76 1113 q 375 1239 244 1239 q 556 1108 492 1239 q 582 1015 582 1078 l 582 983 q 533 864 582 942 l 658 864 q 703 825 703 860 l 692 819 l 681 825 l 669 808 q 680 806 671 808 q 699 796 689 803 q 716 778 708 789 q 724 754 724 768 l 724 738 q 713 726 721 726 l 576 726 q 675 519 675 604 q 571 264 675 297 q 544 247 571 251 l 544 238 q 882 8 738 154 l 871 8 l 860 14 l 888 -46 z "},"ঈ":{"ha":910,"x_min":-65,"x_max":985,"o":"m 888 663 l 888 651 q 882 625 888 632 q 888 586 888 604 q 708 288 888 501 q 599 31 599 124 q 664 -111 599 -25 l 664 -115 q 610 -67 650 -114 l 610 -72 q 681 -176 657 -129 q 664 -197 672 -197 q 597 -156 631 -183 q 536 -90 564 -128 q 491 -4 508 -51 q 474 96 474 43 q 501 238 474 138 l 496 238 q 131 113 449 218 q 76 64 94 64 q 60 101 60 97 l 49 96 q 33 118 39 96 q 38 151 38 124 q 17 194 17 151 l 6 189 l 0 200 q 397 374 0 281 q 479 510 479 451 q 365 696 479 582 q 235 526 235 557 q 283 489 249 489 q 332 576 296 489 l 338 576 l 349 571 q 365 586 349 578 q 392 526 378 586 q 408 521 408 526 q 306 358 376 358 q 99 506 215 358 q 88 549 88 525 l 88 581 q 185 756 88 636 q -65 815 -43 775 q -6 854 -47 854 q 138 862 61 860 q 306 864 215 864 q 442 1039 442 997 q 354 1115 442 1088 l 343 1115 q 242 1086 288 1114 q 169 1000 197 1058 l 147 951 l 142 951 q 131 963 131 951 l 119 957 l 114 957 l 108 990 q 93 979 107 990 q 65 1017 86 979 q 218 1213 65 1147 q 371 1229 315 1229 q 572 1110 510 1229 q 604 1039 604 1082 l 604 1006 q 528 864 604 958 l 908 864 q 963 826 963 864 l 951 821 l 940 826 q 925 815 940 815 l 925 810 q 985 750 971 806 l 974 728 q 652 733 768 731 q 507 739 536 736 l 507 733 q 621 515 621 606 q 615 472 615 489 q 735 636 704 532 q 796 713 735 671 q 839 674 839 688 l 844 674 l 867 696 l 871 696 q 888 663 888 689 z "},"উ":{"ha":742,"x_min":-71,"x_max":807,"o":"m 719 592 l 719 575 q 654 226 654 386 q 657 194 654 217 q 665 135 660 171 q 654 118 658 118 l 660 107 l 660 75 q 606 19 651 19 q 181 172 442 19 q 22 428 22 294 q 136 668 49 636 l 164 690 l 169 690 l 164 657 l 169 657 q 201 668 189 668 l 207 657 l 158 549 l 164 538 q 147 424 147 481 q 490 161 147 282 l 513 161 q 501 265 501 217 q 506 334 504 308 q 507 368 507 360 l 403 288 l 388 288 q 332 314 365 307 q 257 390 332 324 q 235 467 242 410 q 255 575 240 506 q 294 744 269 644 q -71 808 -8 776 q 0 864 -71 864 l 311 864 q 458 1088 458 1013 q 414 1131 458 1106 q 218 1033 333 1131 q 181 968 181 985 l 175 968 l 164 974 q 158 940 164 947 q 125 968 125 940 l 125 974 l 115 974 l 115 963 l 110 963 q 82 994 101 963 l 82 1006 q 267 1229 82 1124 q 384 1246 343 1240 q 431 1251 425 1251 q 572 1169 531 1251 q 621 1082 621 1106 l 621 1044 q 539 864 621 1003 l 742 864 q 785 838 771 864 l 785 832 l 779 821 l 768 826 q 753 810 761 826 q 785 788 785 810 q 807 772 807 786 l 807 739 q 790 728 807 728 q 780 729 788 728 q 758 733 772 731 q 753 728 753 733 l 447 739 l 447 733 q 388 461 447 646 l 393 461 q 516 551 474 508 q 567 635 558 594 q 600 679 571 658 l 606 679 q 621 668 619 668 q 632 685 621 685 l 638 685 q 649 663 649 685 l 660 663 q 671 685 660 685 l 676 685 q 703 608 697 685 q 719 592 711 608 z "},"ঊ":{"ha":850,"x_min":-72,"x_max":915,"o":"m 828 592 l 828 575 q 763 226 763 383 q 765 193 763 217 q 774 133 768 169 q 763 117 767 117 l 768 107 l 768 74 q 615 -8 768 11 q 578 -14 599 -8 q 60 193 264 -14 q -6 308 -6 288 q 0 324 -6 314 q -6 340 -6 333 l 6 346 q 22 335 21 335 l 50 340 l 50 335 l 60 340 l 71 340 q 278 178 217 201 l 283 178 l 283 182 q 131 428 131 286 q 246 667 157 638 l 272 689 l 278 689 l 272 657 l 278 657 q 311 667 296 667 l 317 657 l 267 547 l 272 536 q 257 422 257 478 q 600 161 257 282 l 621 161 q 613 213 615 188 q 611 264 611 239 q 615 368 615 351 l 513 286 l 496 286 q 442 314 475 307 q 365 389 442 322 q 343 465 350 408 q 363 574 349 504 q 403 743 378 643 q 78 772 196 757 q -72 804 -40 786 q -1 864 -72 864 l 419 864 q 567 1086 567 1013 q 524 1131 567 1104 q 328 1032 446 1131 q 289 967 289 985 l 283 967 l 272 972 q 267 940 272 946 q 235 967 235 940 l 235 972 l 224 972 l 224 961 l 218 961 q 192 994 210 961 l 192 1006 q 376 1228 192 1124 q 493 1244 453 1239 q 540 1250 533 1250 q 681 1168 639 1250 q 731 1082 731 1106 l 731 1043 q 649 864 731 1003 l 850 864 q 894 836 879 864 l 894 831 l 889 819 l 878 825 q 861 808 869 825 q 894 788 894 808 q 915 771 915 785 l 915 738 q 900 728 915 728 q 867 733 893 728 q 861 728 861 733 l 556 738 l 556 733 q 496 460 556 644 l 501 460 q 676 635 661 553 q 708 678 683 660 l 714 678 q 731 667 729 667 q 742 683 731 683 l 747 683 q 757 663 757 683 l 768 663 q 779 683 768 683 l 785 683 q 796 677 793 683 q 801 659 799 671 q 810 630 804 647 q 828 592 815 613 z "},"ঋ":{"ha":940,"x_min":-21,"x_max":1006,"o":"m 1006 756 q 989 733 997 733 l 983 733 q 953 736 974 733 q 900 744 932 739 l 894 733 l 894 700 q 883 400 894 550 q 850 96 872 250 q 840 85 840 96 q 801 129 801 85 l 796 129 q 785 113 796 113 q 747 260 765 113 q 676 331 676 311 l 671 331 l 660 25 q 643 3 643 25 l 638 3 l 622 14 q 617 8 622 8 q 606 47 606 33 l 600 47 q 589 31 600 31 q 551 167 565 63 q 158 319 382 319 l 153 319 q 121 303 132 303 q 67 346 119 317 l 72 379 q 39 417 39 379 l 28 411 l 22 422 l 22 439 q 138 488 56 488 l 192 488 q 258 542 224 510 q 328 618 292 575 q 294 651 328 626 q 203 558 264 558 l 175 558 q 28 668 128 558 q -21 881 -15 668 l -21 892 q 50 929 6 917 q 82 875 82 885 l 93 875 q 104 892 93 892 l 115 892 q 125 863 122 892 q 132 799 128 833 q 144 735 136 764 q 169 706 153 706 q 224 771 199 706 q 219 788 224 776 q 317 946 238 946 q 344 907 317 926 l 344 896 l 350 896 q 376 918 372 918 q 393 901 385 918 l 393 886 q 376 842 393 863 q 382 826 382 832 q 379 801 382 818 q 371 756 376 783 q 415 717 385 717 l 421 717 q 572 881 426 717 l 583 881 q 633 847 601 860 q 649 869 633 869 l 654 869 q 682 815 671 869 q 671 804 671 813 l 671 793 l 688 771 l 688 739 l 671 717 l 671 549 q 742 433 671 535 l 747 433 l 747 765 q 696 810 747 771 q 710 839 701 832 q 731 849 718 846 q 760 858 743 853 q 801 881 778 863 q 824 858 807 881 l 835 864 l 951 864 q 983 831 983 851 l 972 826 l 972 831 q 946 821 957 821 l 946 815 q 1006 756 985 815 m 524 581 q 344 439 428 494 q 535 314 419 415 l 540 314 q 524 581 529 431 z "},"এ":{"ha":708,"x_min":0,"x_max":714,"o":"m 714 44 l 714 11 q 703 0 711 0 q 671 11 696 0 q 660 0 668 0 l 649 0 q 621 22 626 22 l 594 17 q 572 39 594 25 l 556 28 q 476 99 528 61 q 358 174 425 138 q 211 242 290 210 q 50 294 132 274 q 0 322 0 313 q 22 351 13 343 q 43 362 32 360 q 69 363 54 364 q 104 365 83 363 q 535 229 283 365 l 540 229 q 507 665 518 379 l 501 665 q 317 490 394 589 q 343 474 317 478 q 414 529 376 474 q 419 524 414 524 q 431 539 419 539 q 464 485 449 522 l 469 485 q 371 354 469 354 l 349 354 q 175 485 288 354 q 169 513 175 503 q 431 833 169 618 q 507 904 476 894 q 546 861 546 869 l 578 888 q 600 839 600 882 q 594 833 594 839 q 606 817 606 833 l 611 817 l 632 839 l 638 839 q 660 779 660 833 q 643 153 660 525 q 686 110 651 153 l 686 99 l 682 99 l 665 110 l 660 110 q 687 78 674 94 q 714 44 700 63 z "},"ঐ":{"ha":981,"x_min":0,"x_max":958,"o":"m 958 790 q 849 583 958 718 q 653 458 738 501 q 650 362 653 438 q 642 153 647 286 q 686 110 649 153 l 686 99 l 681 99 l 664 110 l 658 110 q 685 78 672 94 q 713 44 699 63 l 713 11 q 701 0 710 0 q 669 11 694 0 q 658 0 667 0 l 647 0 q 621 22 625 22 l 593 17 q 571 39 593 25 l 556 28 q 478 98 529 60 q 358 173 426 136 q 211 242 290 210 q 49 294 132 274 q 0 322 0 314 q 20 351 10 343 q 42 362 31 360 q 69 363 54 364 q 103 365 83 363 q 533 229 285 365 l 539 229 q 506 665 517 379 l 500 665 q 315 490 393 589 q 322 480 315 485 q 343 475 329 475 q 414 529 374 475 q 419 524 414 524 q 429 540 419 540 q 463 485 449 521 l 468 485 q 369 354 468 354 l 349 354 q 174 485 288 354 q 168 513 174 506 q 429 833 168 618 q 506 904 475 894 q 544 861 544 869 l 576 889 q 599 839 599 881 q 593 833 593 839 q 604 818 604 833 l 610 818 l 631 839 l 636 839 q 658 774 658 839 l 658 660 l 664 660 q 822 824 822 751 q 544 1275 544 1089 q 610 1318 544 1311 q 615 1313 610 1313 q 604 1281 608 1281 q 610 1264 610 1271 l 626 1275 l 631 1275 q 626 1269 631 1269 l 631 1258 l 631 1247 q 626 1243 631 1243 q 865 969 626 1192 q 892 929 876 951 q 923 884 908 907 q 948 837 938 861 q 958 790 958 813 z "},"ও":{"ha":828,"x_min":17,"x_max":806,"o":"m 806 168 q 768 114 806 143 q 745 88 764 107 q 697 50 726 69 q 631 15 668 31 q 556 0 594 0 q 93 299 322 0 q 17 451 25 401 l 22 463 q 17 485 17 472 l 17 496 l 28 496 l 49 479 q 60 517 49 517 q 485 168 371 168 q 572 147 519 147 q 632 157 585 147 l 632 163 q 567 218 608 194 l 556 218 l 544 213 q 533 222 543 222 q 490 213 528 222 q 479 239 479 226 l 442 228 q 425 244 442 232 l 414 239 l 408 239 q 397 250 397 239 l 397 261 q 468 343 413 343 q 550 496 550 417 q 436 669 550 574 q 310 496 310 521 q 338 474 338 476 q 408 539 360 474 q 436 556 417 539 q 474 500 463 500 l 474 485 q 376 349 436 349 l 349 349 q 169 485 293 349 q 164 506 164 494 l 164 539 q 354 839 164 619 q 376 849 363 839 q 392 839 388 839 q 403 849 392 849 q 425 822 415 846 l 451 828 l 463 822 q 474 833 463 833 q 675 567 675 603 l 681 528 q 649 343 681 403 l 654 343 q 806 185 806 246 l 806 168 z "},"ঔ":{"ha":911,"x_min":17,"x_max":889,"o":"m 889 593 q 774 364 889 500 l 697 304 q 807 174 807 253 l 807 168 q 764 108 807 139 q 617 6 764 85 l 561 0 q 61 349 297 0 q 17 451 17 431 l 22 463 q 17 485 17 472 l 17 494 l 28 494 l 50 479 q 61 517 50 517 q 410 201 347 201 q 572 146 410 179 q 632 157 579 146 l 632 163 q 551 217 588 217 q 546 213 551 213 q 535 222 544 222 q 490 213 528 222 q 481 239 481 224 l 442 228 q 425 244 442 232 l 415 239 l 410 239 q 399 250 399 239 l 399 261 q 469 343 414 343 l 540 429 q 551 494 551 476 q 436 669 551 574 q 311 494 311 519 q 339 474 339 475 q 374 497 353 474 q 436 556 396 519 q 447 544 447 553 l 442 533 q 464 500 460 533 l 475 500 l 475 485 q 376 349 435 349 l 350 349 q 169 485 293 349 q 164 506 164 492 l 164 539 q 354 839 164 619 q 376 849 365 839 q 393 839 390 839 q 404 849 393 849 q 425 822 415 846 l 453 828 l 464 822 q 475 833 464 833 q 676 565 676 603 q 682 506 682 539 q 747 621 715 506 l 747 658 q 653 784 708 713 q 524 947 597 856 q 469 1176 469 1040 q 518 1242 486 1222 l 529 1236 q 546 1253 529 1242 l 557 1253 l 557 1247 l 551 1236 q 557 1219 557 1226 q 551 1214 551 1219 q 578 1208 558 1208 l 578 1197 q 561 1132 561 1144 l 561 1111 q 747 876 561 1054 q 889 593 889 694 z "},"ক":{"ha":1029,"x_min":-39,"x_max":1090,"o":"m 22 864 l 561 864 q 578 875 576 875 l 583 875 q 604 864 589 868 l 653 864 l 658 864 l 1029 864 q 1090 815 1075 864 q 1073 801 1090 807 q 1005 786 1056 794 q 861 768 954 778 q 746 756 813 763 q 828 696 786 726 q 1007 581 911 639 l 1007 575 q 926 319 997 319 l 915 319 q 697 413 819 319 l 703 461 q 794 429 724 461 q 774 439 794 439 l 774 450 q 850 429 842 429 q 871 510 865 442 q 822 549 871 518 q 669 646 774 581 l 669 521 q 667 253 669 378 q 658 19 664 128 q 643 -1 643 19 l 638 -1 l 621 10 q 615 4 621 4 q 604 42 604 26 l 599 42 q 588 25 599 25 q 550 161 567 56 q 158 314 381 314 l 153 314 q 119 297 132 297 q 65 342 117 313 l 71 374 q 38 413 38 374 l 28 407 l 22 418 l 22 433 q 136 483 56 483 l 190 483 q 278 558 214 494 q 447 739 342 622 l 439 743 q 431 744 435 744 q 190 768 282 758 q 47 786 97 778 q -22 801 -4 794 q -39 815 -39 807 q 22 864 -24 864 m 522 575 q 343 433 428 492 q 533 308 418 411 l 539 308 q 522 575 528 426 z "},"খ":{"ha":822,"x_min":6,"x_max":893,"o":"m 606 863 q 631 865 624 864 q 642 869 638 867 q 652 874 646 871 q 675 881 658 876 q 692 864 675 872 l 850 864 q 876 831 871 853 q 839 819 847 819 l 882 788 q 893 776 893 785 l 893 744 q 882 733 890 733 l 768 733 l 768 183 q 817 156 781 183 q 800 133 815 133 l 822 101 q 806 85 822 93 l 768 90 l 768 47 q 746 -3 768 10 q 714 36 714 -3 l 708 36 l 708 25 l 697 25 q 658 122 683 25 q 244 183 422 183 q 97 156 172 183 l 93 156 q 54 189 93 183 l 49 199 q 60 232 60 218 l 54 232 q 38 226 44 226 q 22 269 22 242 l 11 264 l 6 275 q 190 351 51 351 l 250 351 q 272 346 263 351 q 408 476 408 404 q 400 514 403 500 q 397 532 397 528 l 386 532 q 239 390 333 390 q 76 504 172 400 q 32 586 32 536 q 65 771 32 604 l 65 776 q 60 799 65 789 q 114 842 61 818 l 136 842 q 179 793 169 793 q 190 804 179 804 l 196 804 q 218 765 218 794 q 197 629 204 678 q 190 569 190 581 q 207 547 199 547 l 213 547 q 321 694 282 547 l 272 776 l 272 782 q 294 825 272 811 l 289 836 q 304 853 289 844 l 326 853 q 375 815 351 836 l 381 815 q 392 836 381 836 l 397 836 q 416 816 400 836 q 454 754 432 796 q 501 650 476 713 q 550 504 526 588 q 496 308 550 346 l 496 303 q 649 249 563 286 l 649 254 q 627 465 638 340 q 610 754 617 589 l 606 863 z "},"গ":{"ha":717,"x_min":0,"x_max":807,"o":"m 511 864 l 681 864 q 785 825 785 864 q 746 815 760 815 l 779 793 q 774 788 774 793 q 807 739 807 788 q 785 728 792 728 q 731 729 761 728 q 664 733 701 731 l 664 728 q 643 -28 664 340 q 626 -43 626 -28 l 621 -43 l 604 -33 q 599 -39 604 -39 q 588 0 588 -10 l 582 0 q 572 -17 582 -17 q 557 17 565 -17 q 541 123 549 51 q 528 304 533 194 q 522 565 522 414 q 409 624 465 592 q 294 696 353 656 q 233 625 276 685 l 233 619 q 333 581 292 600 q 403 543 375 561 l 408 543 q 419 571 408 571 l 425 571 q 457 429 457 571 q 299 217 457 217 q 17 288 118 217 q 54 325 17 325 q 183 332 135 325 q 258 353 232 339 q 291 391 283 368 q 299 446 299 414 l 299 461 q 244 465 267 464 q 207 467 221 467 l 185 467 q 147 465 171 467 q 92 461 124 464 q 49 494 92 493 l 60 538 l 32 538 l 0 582 q 71 636 17 608 q 207 854 160 854 l 218 849 q 272 869 261 869 q 315 826 272 861 q 326 838 315 838 l 332 838 q 517 701 433 750 l 511 728 l 511 864 z "},"ঘ":{"ha":803,"x_min":-64,"x_max":871,"o":"m 871 744 l 871 728 q 860 717 868 717 l 822 722 l 811 717 q 751 728 789 728 l 751 646 q 735 113 751 401 q 794 74 785 92 q 774 58 794 58 q 794 14 794 35 l 785 8 l 289 140 q 185 151 225 147 q 131 156 146 156 q 97 140 119 156 q 71 172 94 140 q 54 167 61 167 l 43 183 l 43 194 l 54 211 l 49 221 l 38 215 q 11 254 21 215 l 0 254 l 0 271 q 114 325 39 325 l 136 325 q 213 314 168 325 q 321 433 301 394 l 321 439 q 131 543 131 506 q 118 547 128 543 q 98 556 108 550 q 79 566 88 561 q 71 575 71 571 q 201 706 71 621 l 261 767 q -64 804 -29 767 q 0 864 -64 829 l 50 864 q 185 863 113 864 q 343 858 257 861 q 397 897 368 897 q 431 864 411 864 q 451 869 451 864 l 507 864 l 803 864 q 850 826 850 842 q 844 815 850 815 l 822 815 l 822 799 q 871 744 871 779 m 599 739 q 556 742 589 739 q 468 750 524 744 q 300 575 428 656 l 300 569 q 371 558 351 558 l 397 558 q 463 635 422 635 q 496 608 463 625 l 496 603 l 501 603 q 528 629 524 629 l 533 629 q 550 603 546 629 l 544 554 q 561 543 561 554 l 561 526 q 392 265 543 438 q 632 167 536 215 q 599 739 610 326 z "},"ঙ":{"ha":818,"x_min":0,"x_max":796,"o":"m 796 515 l 796 489 q 725 156 756 489 q 617 25 693 60 q 513 10 536 10 q 22 172 257 10 q 0 200 22 176 l 0 206 q 11 211 11 206 l 11 226 l 22 232 q 164 167 36 232 l 169 167 l 169 172 q 88 226 122 185 l 93 226 q 414 129 286 129 q 506 151 472 138 q 558 185 540 164 q 581 236 575 206 q 589 308 586 267 q 360 172 442 192 q 317 211 342 208 l 317 226 l 333 254 q 328 260 328 254 l 317 254 q 300 271 308 254 l 300 297 q 283 308 283 297 q 311 331 293 331 q 300 390 300 386 l 311 526 q 193 543 238 538 q 132 549 149 549 q 99 538 113 538 q 56 581 96 557 l 56 592 l 71 619 q 33 657 33 619 l 33 663 l 22 657 l 17 668 q 99 717 17 692 l 126 717 q 322 685 190 717 l 322 744 q 317 767 322 757 q 490 864 375 864 l 524 864 q 643 788 608 864 q 682 711 668 788 l 682 696 q 518 515 639 515 q 458 504 458 511 q 436 401 458 482 l 442 401 q 654 592 654 531 q 682 608 663 592 l 697 597 q 719 603 707 603 q 736 586 719 594 q 758 608 736 594 q 779 581 768 607 q 774 532 774 554 q 796 515 796 531 m 556 722 q 475 744 539 735 l 475 674 q 556 722 556 674 z "},"চ":{"ha":638,"x_min":-50,"x_max":706,"o":"m 615 497 l 615 471 q 518 449 615 453 q 158 83 442 290 q 93 68 104 68 q 54 83 82 83 l 54 100 l 65 117 l 65 128 q 33 143 38 128 l 33 171 q 22 182 22 171 q 76 236 22 186 q 60 519 65 388 q 54 769 54 651 l 54 775 q -50 808 54 789 l -50 814 q 0 857 -40 857 q 114 885 82 857 q 125 868 125 885 q 295 872 225 871 q 408 874 365 874 l 596 874 q 683 831 683 874 l 651 825 q 706 775 706 781 l 706 749 q 694 732 706 747 q 672 738 689 732 q 352 749 468 743 q 207 760 236 754 l 207 689 q 206 655 207 675 q 201 607 204 635 q 376 579 301 579 l 382 579 q 478 582 431 579 q 572 590 525 585 q 594 563 594 568 q 561 547 594 553 l 561 536 q 615 497 589 536 m 371 454 q 201 497 310 454 l 201 492 q 193 372 196 417 q 190 313 190 328 q 371 454 324 407 z "},"ছ":{"ha":638,"x_min":-50,"x_max":718,"o":"m 692 -122 q 675 -137 692 -129 q 529 -83 658 -137 q 300 -51 408 -51 q 219 -56 260 -51 q 136 -67 179 -60 q 119 -35 119 -42 l 110 -40 l 104 -40 q 88 -24 96 -40 l 88 -18 l 99 -1 l 99 8 q 54 47 54 8 l 44 47 l 44 58 q 251 124 44 104 q 453 271 353 154 q 403 353 406 340 l 397 353 q 93 107 211 175 q 54 150 83 150 l 54 167 l 65 183 l 65 194 q 33 211 38 194 l 33 238 q 22 249 22 238 q 76 303 22 253 q 60 568 65 454 q 54 761 54 682 l 54 765 q -50 799 54 779 l -50 804 q 0 847 -40 847 q 115 875 81 847 q 125 858 125 875 q 295 863 225 861 q 408 864 365 864 l 610 864 q 696 821 696 864 l 664 815 q 718 765 718 771 l 718 739 q 707 722 718 738 q 685 728 701 722 q 355 739 474 733 q 207 750 236 744 l 207 660 q 296 649 254 653 q 376 646 338 646 l 382 646 q 478 649 431 646 q 572 657 525 651 q 594 631 594 635 q 561 614 594 619 l 561 603 q 615 564 589 603 l 615 538 q 518 515 615 519 q 501 478 501 483 q 600 276 600 288 l 600 260 q 583 238 590 238 q 594 206 594 218 q 474 75 594 147 l 474 69 q 686 -67 597 22 l 686 -72 l 675 -72 l 675 -83 q 692 -122 675 -101 m 371 521 q 201 564 310 521 l 201 560 q 193 440 196 485 q 190 379 190 394 q 371 521 324 474 z "},"জ":{"ha":915,"x_min":-71,"x_max":988,"o":"m 22 472 q 218 750 22 675 q 235 744 228 744 l 235 739 l 229 728 l 256 728 l 267 733 l 272 724 l 272 713 q 168 565 168 622 q 153 483 160 565 q 228 318 153 386 q 468 211 303 250 q 472 259 471 239 q 474 293 474 279 l 474 319 l 468 319 q 419 314 446 319 q 272 358 292 314 q 244 379 246 369 l 244 385 l 256 401 l 256 407 q 218 450 228 407 q 207 461 207 453 q 261 549 261 504 l 354 750 l 349 750 q -71 804 4 771 q 0 860 -71 860 q 321 864 242 864 l 381 864 l 457 881 q 468 869 460 869 q 665 868 553 869 q 917 864 776 867 q 965 843 965 856 l 965 838 q 928 821 965 826 l 928 815 q 988 756 988 797 l 988 750 q 971 733 988 743 l 653 733 q 776 640 717 682 q 893 565 835 597 l 893 538 q 865 506 865 517 q 876 494 876 506 l 876 472 q 768 118 806 361 q 735 -67 756 -67 l 729 -67 l 729 -56 l 724 -56 l 714 -61 q 703 -24 703 -36 l 697 -24 l 697 -39 l 692 -39 q 653 113 653 -4 l 653 157 q 724 521 653 333 q 642 576 696 538 q 507 674 589 614 l 501 674 q 386 483 501 657 l 446 478 q 517 526 517 478 q 561 576 535 572 l 561 582 l 578 582 q 593 543 588 582 l 599 543 q 615 565 600 565 l 621 565 q 643 543 629 565 l 643 500 q 669 478 660 500 l 669 467 q 610 81 633 363 q 572 64 590 64 q 168 200 418 72 q 22 472 22 308 z "},"ঝ":{"ha":919,"x_min":-71,"x_max":1008,"o":"m 621 4 l 615 4 l 599 14 q 593 10 599 10 q 582 47 582 32 l 576 47 q 567 31 576 31 q 528 167 544 60 q 131 319 358 319 q 97 303 110 303 q 43 347 94 318 q 49 379 43 356 q 17 418 17 379 l 6 413 l 0 424 l 0 439 q 114 489 33 489 l 168 489 q 419 739 211 510 q -71 810 268 739 q 0 864 -71 864 l 507 864 q 556 881 535 864 l 561 881 q 610 858 579 858 l 626 869 q 658 815 647 869 q 647 804 647 813 l 647 793 l 664 772 l 664 739 l 647 717 l 647 549 q 718 433 647 535 l 724 433 l 724 767 q 658 810 724 772 q 674 839 664 832 q 699 848 685 846 q 733 855 714 850 q 779 881 753 860 q 800 858 786 881 l 811 864 q 886 865 850 864 q 954 869 922 867 q 988 832 988 857 l 976 826 l 976 832 q 949 821 957 821 l 949 815 q 1008 756 988 815 q 993 733 1000 733 q 933 736 961 733 q 876 744 904 739 l 871 733 q 860 408 871 567 q 828 96 850 250 q 817 85 817 96 q 779 129 779 85 l 774 129 q 763 113 774 113 q 724 260 742 113 q 653 331 653 311 l 647 331 l 638 25 q 621 4 621 25 m 517 314 q 508 439 511 372 q 501 581 504 506 q 321 439 404 493 q 511 314 396 417 l 517 314 z "},"ঞ":{"ha":1024,"x_min":0,"x_max":1001,"o":"m 556 864 l 561 864 q 582 842 561 851 q 632 858 592 842 q 647 819 647 839 l 626 799 q 643 788 628 799 q 647 793 643 793 q 653 776 653 783 l 664 776 q 681 799 665 799 l 686 799 q 692 793 692 799 q 828 853 793 853 q 865 804 847 804 q 882 810 875 810 q 964 646 951 729 q 904 456 964 461 l 904 450 q 1001 303 1001 353 l 1001 297 q 986 275 992 275 l 992 249 l 992 238 q 854 139 992 165 l 724 156 q 785 74 785 92 l 774 74 q 763 90 774 90 l 757 90 q 811 -8 811 33 q 794 -24 811 -15 q 763 -14 774 -14 q 751 -24 763 -24 l 740 -24 l 714 8 q 703 -3 714 -3 l 692 -3 l 664 19 q 653 8 664 8 q 142 264 522 174 q 0 308 110 264 q 82 357 0 357 l 114 357 q 576 249 307 357 l 576 254 q 563 400 569 299 q 550 663 556 501 l 544 663 q 343 521 393 574 l 343 515 q 375 482 343 499 q 440 538 418 482 l 446 538 l 457 532 q 468 547 457 547 l 474 547 q 501 493 481 547 l 507 493 q 397 357 479 357 q 196 515 322 357 q 192 537 193 529 q 190 547 190 544 q 539 858 190 658 q 556 864 539 864 m 703 564 l 703 510 q 740 526 729 526 l 768 521 q 839 608 839 546 q 817 674 839 643 q 731 615 758 642 q 703 564 704 588 m 697 433 l 697 368 q 696 323 697 350 q 692 260 694 296 l 751 254 q 854 303 806 254 l 854 314 q 751 390 783 390 q 703 428 747 428 q 697 433 703 433 z "},"ট":{"ha":615,"x_min":-79,"x_max":664,"o":"m -79 793 q 71 853 -79 853 q 222 1006 118 853 q 267 1060 235 1010 l 267 1071 q 168 1147 232 1125 q 43 1049 43 1114 l 32 1043 q 26 1049 32 1049 q 21 1011 26 1017 q -17 1049 -17 1011 l -22 1049 q -33 1032 -22 1032 q -60 1092 -60 1067 q 16 1219 -44 1183 q 185 1256 76 1256 q 435 1060 351 1256 l 435 1043 q 326 864 435 1006 l 381 864 q 397 869 397 864 l 425 864 l 615 864 q 642 836 622 864 q 610 819 642 826 l 610 810 q 636 799 636 810 q 631 793 631 799 q 664 743 664 793 q 647 728 656 743 l 615 733 q 413 735 514 733 q 207 739 311 736 l 207 733 q 204 513 207 619 q 196 303 201 406 q 463 536 439 450 l 463 542 q 386 564 408 564 l 349 564 q 315 493 315 526 q 272 461 281 493 l 272 456 q 244 493 244 463 l 244 526 q 310 674 271 674 q 403 700 314 694 q 550 613 504 700 q 593 526 576 613 l 593 504 q 463 292 588 429 q 411 253 444 276 q 340 202 378 229 q 262 148 301 175 q 190 99 222 121 q 137 64 157 78 q 118 50 117 50 l 107 50 q 92 89 93 50 l 81 83 q 64 104 72 83 l 81 138 q 53 154 53 140 l 53 181 q 36 186 46 181 q 86 232 46 219 q 63 520 71 392 q 54 749 54 649 q -79 793 -6 749 m 310 532 l 315 532 l 321 553 q 310 536 310 553 l 310 532 z "},"ঠ":{"ha":736,"x_min":-68,"x_max":799,"o":"m 479 140 l 453 140 q 49 374 242 140 q 0 450 0 439 q 76 494 49 494 q 119 450 108 453 q 136 461 119 461 q 164 439 160 439 q 408 597 304 439 l 447 750 q -68 810 -11 774 q 14 858 -68 858 q 382 864 31 864 q 300 1147 300 1040 q 371 1311 308 1311 q 408 1339 408 1333 q 490 1300 490 1326 q 451 1271 467 1285 q 425 1246 435 1257 l 431 1235 q 422 1197 425 1213 q 419 1169 419 1181 q 546 865 419 1033 q 610 870 581 868 q 664 872 640 872 q 778 838 778 872 l 778 826 l 750 832 q 799 772 750 824 l 799 739 q 783 729 799 729 l 761 739 l 733 733 l 621 733 q 714 435 714 569 q 626 161 714 283 q 615 172 624 172 q 604 161 613 161 l 594 167 q 583 151 594 151 l 567 151 l 550 161 q 479 140 550 144 m 496 265 q 544 494 544 382 l 533 494 q 283 347 449 347 l 261 347 q 453 265 297 299 l 496 265 z "},"ড":{"ha":731,"x_min":-103,"x_max":779,"o":"m 22 381 q 41 492 31 449 q 65 561 51 536 q 96 595 79 586 q 132 604 113 604 q 126 571 132 597 l 126 565 l 132 565 q 147 593 135 593 q 158 571 158 578 q 143 483 158 560 l 153 478 q 145 427 147 447 q 143 397 143 407 q 501 151 143 224 l 513 151 q 515 272 513 214 q 524 386 518 331 q 333 239 360 239 q 294 282 324 282 l 294 293 l 311 321 l 311 326 q 279 342 279 326 l 279 369 q 263 381 263 369 q 279 397 268 381 q 283 756 283 685 q -103 811 -54 779 q 7 865 -103 865 q 230 866 147 865 q 359 867 313 867 q 425 869 406 868 q 458 872 444 871 q 490 873 472 872 q 550 874 507 874 q 751 857 751 874 q 757 840 751 850 q 719 831 732 831 q 764 798 749 815 q 779 754 779 781 l 763 743 l 746 743 q 568 735 650 735 q 500 736 532 735 q 436 740 468 738 q 415 500 429 576 l 421 500 q 583 653 489 539 l 589 653 q 632 625 632 635 l 654 658 l 665 658 q 688 619 688 650 l 688 588 q 708 549 708 588 q 649 38 689 549 q 622 15 644 38 l 611 15 q 510 25 569 15 q 385 54 450 35 q 255 103 319 74 q 138 174 190 133 q 54 265 86 214 q 22 381 22 317 z "},"ঢ":{"ha":614,"x_min":-67,"x_max":675,"o":"m 592 525 l 592 504 q 461 292 586 429 q 344 205 408 249 q 206 115 281 161 q 125 51 132 51 l 114 51 q 97 89 101 51 l 88 83 q 71 106 79 83 l 88 139 q 60 154 60 139 l 60 182 q 43 188 53 182 q 85 232 54 222 q 61 520 69 392 q 53 749 53 649 q -67 793 7 749 q 69 853 -67 853 q 118 868 111 868 l 124 868 l 124 858 q 194 863 164 861 q 243 864 224 864 l 379 864 q 401 868 390 864 q 422 864 411 864 l 625 864 q 653 836 633 864 q 619 819 653 825 l 619 808 q 647 797 647 808 q 642 793 642 797 q 675 743 675 793 q 658 726 667 743 l 625 732 q 413 733 517 732 q 206 738 310 735 l 206 732 q 203 511 206 618 q 194 303 200 404 q 461 536 438 449 l 461 542 q 385 564 407 564 l 347 564 q 314 493 314 524 q 271 460 279 493 l 271 454 q 243 493 243 463 l 243 525 q 308 672 269 672 q 401 700 311 693 q 549 613 503 700 q 592 525 575 613 m 319 553 q 308 536 308 553 l 308 531 l 314 531 q 319 553 319 547 z "},"ণ":{"ha":589,"x_min":22,"x_max":650,"o":"m 354 815 q 413 864 368 853 l 558 864 q 633 826 633 864 q 596 815 604 815 q 638 785 625 797 q 650 771 644 778 l 650 739 q 639 728 647 728 q 594 729 619 728 q 540 733 569 731 q 532 369 538 532 q 518 79 526 207 l 490 58 l 485 58 l 485 69 l 475 64 l 469 64 q 464 101 464 82 l 458 101 q 447 85 458 85 q 393 618 415 85 q 235 694 354 694 q 181 422 235 594 q 268 532 239 422 l 257 603 q 294 618 285 618 q 338 493 338 571 l 343 493 l 343 542 q 338 558 338 551 q 365 488 357 558 q 192 275 313 275 q 39 374 138 275 q 22 408 22 379 q 71 645 54 558 q 88 760 88 732 q 91 800 88 785 q 101 826 94 815 q 120 844 108 836 q 147 858 132 851 l 158 853 l 213 864 q 354 815 254 864 z "},"ত":{"ha":801,"x_min":-87,"x_max":850,"o":"m 410 882 q 415 865 410 875 l 803 864 q 827 835 825 844 q 829 822 829 826 q 796 811 804 811 q 850 763 850 771 l 850 735 q 840 724 850 724 l 665 724 q 779 451 779 576 q 676 147 779 217 q 490 71 588 71 l 431 71 q 289 88 357 71 q 165 140 221 106 q 66 227 108 175 q 0 349 24 279 q 6 371 6 365 l 0 403 l 6 403 q 39 381 29 381 q 56 403 47 403 q 132 304 81 385 q 376 179 238 179 q 638 425 638 228 q 551 649 638 533 q 464 708 533 665 l 458 708 q 328 474 328 557 q 360 425 328 444 l 388 425 q 458 474 458 425 l 458 501 l 453 556 l 475 556 q 486 567 478 567 q 535 457 508 567 l 540 457 l 540 463 q 535 485 535 472 l 540 485 l 535 496 l 535 501 l 546 501 q 557 451 557 464 l 557 442 q 504 322 539 356 q 419 289 469 289 l 388 289 q 229 392 325 289 q 181 522 194 392 q 278 763 181 619 q -87 817 -21 763 l -87 822 l -67 856 q 29 865 -26 865 l 328 865 l 410 882 z "},"থ":{"ha":803,"x_min":22,"x_max":853,"o":"m 594 863 q 656 865 632 864 q 697 866 681 865 q 724 867 713 867 q 751 868 736 868 q 831 840 831 868 l 831 835 q 797 824 806 824 q 853 775 851 781 l 853 747 q 842 731 853 746 q 782 728 803 729 q 758 728 761 728 q 750 423 756 560 q 736 178 744 286 q 774 139 744 178 l 753 139 l 774 85 l 753 68 q 382 161 579 161 q 175 129 217 151 q 132 172 171 151 l 136 206 q 93 243 93 206 q 82 254 82 243 q 263 331 82 297 q 431 504 431 394 q 328 679 431 569 q 181 532 181 542 l 181 521 q 229 493 181 504 q 311 554 275 493 q 317 549 311 549 q 328 558 317 558 q 360 504 340 558 l 365 504 q 251 363 342 363 q 192 381 231 363 q 115 429 153 400 q 50 492 78 458 q 22 554 22 525 q 251 858 22 631 q 278 869 251 869 q 311 832 311 838 l 317 832 q 344 853 339 853 q 572 526 572 628 q 496 297 572 360 q 626 249 518 297 l 626 254 q 611 504 619 353 q 594 863 603 656 z "},"দ":{"ha":508,"x_min":-87,"x_max":540,"o":"m 540 761 l 540 733 q 524 717 540 726 l 490 733 q 481 722 488 722 l 469 722 q 213 744 469 738 l 207 554 q 349 668 318 622 l 360 674 q 382 651 360 665 q 425 663 401 663 l 442 663 l 453 631 l 463 636 l 468 636 l 468 631 q 457 619 465 619 q 463 614 457 614 l 457 586 q 419 19 442 19 l 408 15 l 403 25 l 392 19 q 376 58 382 19 l 371 58 q 360 42 371 42 q 306 444 318 65 q 179 211 179 351 l 169 211 l 169 238 l 158 238 q 114 135 150 135 l 108 135 q 76 172 96 172 q 54 238 64 225 l 54 265 q 38 276 38 265 q 76 418 38 332 q 54 756 60 736 q -87 799 -24 756 q 54 858 -87 850 q 125 875 81 858 q 136 864 125 864 q 275 868 208 867 q 404 869 342 869 l 410 869 q 518 826 504 869 l 513 815 l 501 821 l 490 821 q 522 783 510 797 q 540 761 533 768 z "},"ধ":{"ha":692,"x_min":-17,"x_max":758,"o":"m 758 772 l 758 750 q 736 728 758 742 l 643 728 q 626 222 643 599 q 708 135 696 161 l 708 129 l 703 129 q 675 151 699 129 l 675 146 q 719 69 696 126 l 697 53 q 615 107 669 64 l 594 81 l 561 86 l 561 118 l 544 107 q 507 183 529 118 q 110 325 285 310 l 82 319 q 33 353 82 342 l 33 364 l 39 390 q -6 429 -6 390 l -17 429 l -17 440 q 93 494 18 494 q 114 493 97 494 q 158 489 131 492 q 267 625 158 501 q 141 710 200 672 q 28 778 82 747 l 22 793 q 153 1175 22 900 q 218 1208 203 1175 l 283 1208 q 496 1093 396 1208 l 501 1056 q 476 993 501 1024 q 403 931 451 963 q 377 914 390 922 q 349 903 364 906 l 343 914 q 354 925 354 914 l 332 925 l 332 940 q 382 1011 369 971 l 382 1022 q 283 1093 382 1072 q 196 843 246 999 q 365 733 250 815 q 388 761 388 757 l 388 767 q 289 804 357 767 q 371 854 289 854 q 496 864 494 861 q 501 860 501 864 l 539 864 l 715 864 q 736 832 736 853 q 704 821 711 821 q 758 772 758 781 m 501 614 l 289 440 l 289 435 q 403 380 351 407 q 496 325 456 353 l 501 325 l 501 614 z "},"ন":{"ha":628,"x_min":-64,"x_max":701,"o":"m 439 156 q 399 221 419 183 q 354 303 378 258 q 267 428 285 413 l 169 238 l 190 221 l 213 221 q 246 271 246 238 l 246 303 l 250 303 q 261 286 261 303 l 267 286 q 278 314 267 314 q 311 238 297 314 l 321 238 q 332 260 321 260 l 338 232 q 213 85 296 85 l 201 85 q 28 232 108 124 q 22 254 22 242 l 22 282 q 142 560 22 310 q 207 635 142 590 q 229 603 207 629 l 240 608 q 246 603 246 608 q 283 614 268 614 q 311 560 301 560 q 321 581 311 581 l 326 581 q 425 433 344 581 l 431 433 l 431 444 q 419 739 426 739 q -64 810 -64 769 q -3 853 -50 853 q 294 861 163 858 q 528 864 426 864 l 582 864 q 685 826 685 864 q 647 815 656 815 q 690 785 678 799 q 701 771 701 772 l 701 739 q 690 728 701 728 l 669 728 q 623 729 646 728 q 578 733 600 731 q 539 58 569 58 l 533 58 q 439 156 499 63 z "},"প":{"ha":751,"x_min":0,"x_max":828,"o":"m 828 756 l 828 744 q 806 728 828 728 q 795 729 803 728 q 774 733 788 731 q 768 728 768 733 q 713 738 713 736 l 714 739 q 697 744 708 740 l 697 135 q 681 96 697 122 l 664 96 l 664 107 l 653 101 l 647 101 l 642 135 l 626 124 q 556 483 594 124 q 422 369 500 433 q 239 226 343 306 q 211 200 239 219 l 207 200 q 190 238 192 200 l 179 232 l 174 232 q 163 243 163 232 l 163 260 l 174 276 l 174 288 q 142 314 142 288 l 142 331 l 131 325 q 125 331 131 331 q 267 450 196 422 l 267 456 q 168 504 267 481 q 108 444 168 496 l 103 444 l 103 456 q 65 439 83 439 l 49 439 l 49 444 q 60 478 49 458 l 54 478 l 32 461 l 26 461 q 0 483 0 479 q 125 815 74 629 l 168 849 q 179 838 168 838 l 185 838 q 233 853 207 853 l 250 853 q 539 717 353 853 l 544 717 q 500 788 544 788 l 494 799 q 610 881 496 829 l 626 853 q 687 861 665 858 q 713 864 708 864 l 763 864 q 806 838 792 864 l 806 832 l 800 821 l 789 826 q 774 810 782 826 q 806 788 806 810 q 828 756 828 788 m 506 597 q 256 690 363 690 q 239 631 256 669 q 358 521 282 631 l 358 510 q 506 592 499 592 l 506 597 z "},"ফ":{"ha":931,"x_min":-114,"x_max":1007,"o":"m 521 276 q 510 463 514 372 q 507 642 507 554 l 546 700 q 583 708 560 708 q 633 696 601 708 q 701 663 665 683 q 774 618 738 643 q 842 568 811 593 q 891 521 872 543 q 910 485 910 499 l 910 474 q 850 244 910 244 l 828 239 q 658 326 667 267 l 669 326 l 664 338 q 681 354 664 343 q 725 343 700 343 l 751 349 l 751 343 q 779 381 779 350 q 746 485 779 468 q 658 544 735 485 l 654 544 q 638 81 654 357 q 649 71 649 78 l 632 71 q 649 21 633 39 q 632 0 649 8 q 554 42 626 0 l 536 138 q 444 192 497 160 q 321 265 390 224 q 119 325 175 325 q 99 319 115 325 q 76 353 90 339 q 60 347 67 347 q 49 364 49 363 l 49 375 q 60 390 60 389 q 17 435 17 390 l 6 429 l 0 444 q 71 494 39 494 l 99 494 q 190 472 142 494 q 306 565 279 504 q 315 608 306 575 q 103 701 206 701 q 60 733 103 719 l 60 744 q 65 761 65 754 q -114 804 -68 778 q -33 854 -114 854 l 103 864 q 114 860 114 864 q 513 864 168 864 q 561 881 540 864 l 583 864 l 839 864 l 856 875 l 861 875 q 898 865 872 871 q 964 849 924 858 l 969 826 q 938 815 944 815 l 938 804 q 992 767 964 804 l 992 761 l 981 744 l 981 740 l 1007 722 q 338 739 363 739 q 408 631 408 651 l 431 653 l 436 653 q 457 614 457 642 q 456 603 457 611 q 451 582 454 596 q 468 565 460 582 l 468 554 q 371 390 468 454 l 371 385 l 521 276 z "},"ব":{"ha":703,"x_min":-82,"x_max":779,"o":"m 779 778 l 779 750 l 768 733 l 740 739 l 649 744 l 649 560 q 646 292 649 417 q 638 58 643 167 q 621 36 621 58 l 615 36 l 599 47 q 593 42 599 42 q 583 81 583 63 l 578 81 q 567 64 578 64 q 528 200 544 94 q 142 353 358 353 l 131 353 q 99 336 110 336 q 43 379 97 349 l 43 396 l 54 413 q 17 450 17 413 l 6 444 l 0 456 l 0 472 q 114 521 33 521 l 168 521 q 403 756 226 556 q -82 810 57 756 q 0 858 -82 858 q 301 867 174 864 q 513 869 428 869 q 556 914 513 888 l 561 914 q 610 881 581 892 q 626 903 610 903 l 632 903 q 654 869 654 893 l 736 869 q 757 832 757 861 l 725 826 q 779 778 779 786 m 501 614 q 321 472 410 533 q 517 347 397 444 q 508 473 511 407 q 501 614 504 539 z "},"ভ":{"ha":747,"x_min":-71,"x_max":797,"o":"m 725 319 l 725 265 q 711 156 725 199 q 669 86 697 113 q 599 48 642 60 q 496 31 556 36 q 17 226 231 31 q 0 292 0 272 q 99 249 99 285 l 104 249 l 104 260 q 88 275 96 260 l 93 275 q 419 150 265 150 q 578 243 578 176 l 578 303 q 556 411 578 357 l 550 411 q 376 238 485 238 l 343 238 q 56 444 197 238 q 39 558 39 500 l 39 592 q 121 711 39 613 q 257 739 167 729 l 272 739 q 425 558 371 739 l 425 543 q 376 428 425 464 l 371 439 q 382 450 382 439 l 382 456 l 376 456 q 365 439 376 439 l 360 439 q 354 444 354 439 q 322 433 335 433 l 311 472 q 278 461 292 461 l 235 488 q 257 564 257 546 l 257 569 q 240 608 257 588 q 192 569 197 588 l 192 553 q 333 390 192 390 q 475 549 433 390 l 475 564 q 442 635 442 618 q 490 700 467 700 q 507 685 499 700 l 518 689 l 546 668 q 561 694 546 694 l 567 694 q 725 319 725 446 m 797 744 q 782 728 790 744 l 732 733 q -71 807 154 733 q 0 861 -71 861 q 244 863 132 861 q 453 864 357 864 l 749 864 q 776 831 768 853 q 738 821 756 821 l 771 799 q 765 793 765 799 q 797 744 797 793 z "},"ম":{"ha":613,"x_min":-65,"x_max":681,"o":"m 681 793 l 681 757 q 671 746 678 746 l 583 746 l 556 753 l 556 746 q 557 597 556 664 q 561 478 558 531 q 529 -10 561 -10 l 518 -10 l 518 3 l 513 3 l 501 -4 q 496 31 496 6 l 490 31 l 474 21 q 425 394 449 21 q 393 425 393 394 l 376 413 q 343 454 353 454 l 338 454 q 294 443 336 454 q 289 449 289 443 q 169 289 211 449 q 229 211 179 253 l 246 211 q 289 289 265 211 q 278 296 283 293 q 266 302 272 299 q 253 312 260 306 q 240 329 247 318 q 267 335 247 335 l 267 347 q 240 372 250 347 l 240 382 q 251 394 240 394 l 289 394 q 388 282 331 394 l 388 246 q 267 63 343 63 q 186 101 229 75 q 106 161 143 126 q 46 239 69 196 q 22 329 22 282 q 125 561 22 438 q 54 679 54 608 l 54 704 q 65 781 54 725 l 54 781 q -65 829 -10 781 q -36 865 -56 856 q 17 878 -17 874 q 100 886 50 882 q 224 907 150 890 l 229 907 q 246 894 243 894 l 414 894 q 469 901 449 901 l 469 894 l 610 894 q 665 853 665 890 l 654 846 l 643 853 q 626 840 643 840 l 626 835 q 681 793 653 835 m 408 614 l 408 639 q 407 688 408 658 q 403 757 406 717 l 322 757 l 300 740 l 289 740 q 283 746 283 740 q 201 650 201 722 q 235 597 201 644 q 283 602 263 600 q 317 604 303 604 l 328 604 q 414 586 356 604 l 414 592 q 408 614 408 601 z "},"য":{"ha":706,"x_min":-115,"x_max":768,"o":"m 561 879 l 582 864 l 615 864 q 632 874 618 864 l 636 874 q 674 863 647 869 q 740 847 700 857 q 746 825 740 842 q 713 814 721 814 l 713 803 q 768 765 739 803 l 768 738 l 757 722 l 729 726 l 658 726 q 650 451 656 590 q 636 167 644 313 q 647 156 647 164 l 632 156 q 647 106 633 125 l 647 101 q 632 85 647 93 q 321 264 618 85 q 119 324 175 324 q 97 318 103 318 q 76 351 90 336 q 60 346 67 346 q 49 363 49 361 l 49 374 l 60 389 q 15 433 15 389 l 6 428 l 0 439 l 0 444 q 71 493 40 493 l 97 493 q 190 471 140 493 q 242 494 221 482 q 276 523 263 507 q 298 559 289 539 q 315 607 307 579 q 103 700 206 700 q 60 732 103 718 l 60 743 q 65 760 65 753 q -115 803 -67 776 q -33 853 -115 853 l 103 864 q 114 858 114 864 q 162 863 142 861 q 196 864 182 864 l 511 864 q 561 879 539 864 m 338 738 q 408 629 408 650 l 429 651 l 435 651 q 457 613 457 642 q 456 602 457 610 q 451 581 454 594 q 468 564 460 581 l 468 553 q 369 389 468 454 l 369 383 l 528 269 q 511 509 517 394 q 506 732 506 624 l 500 732 q 389 736 429 735 q 338 738 349 738 z "},"র":{"ha":703,"x_min":-82,"x_max":765,"o":"m 174 258 q 435 106 360 210 l 435 101 l 414 101 l 414 96 q 429 46 414 88 l 403 31 q 185 96 286 79 q 142 128 185 114 l 142 139 l 151 161 q 103 199 113 161 q 92 210 92 199 q 174 258 124 258 m 765 778 l 765 750 l 754 733 l 726 739 l 649 744 l 649 560 q 646 292 649 417 q 638 58 643 167 q 621 36 621 58 l 615 36 l 599 47 q 593 42 599 42 q 583 81 583 63 l 578 81 q 567 64 578 64 q 528 200 544 94 q 142 353 358 353 l 131 353 q 99 336 110 336 q 43 379 97 349 l 43 396 l 54 413 q 17 450 17 413 l 6 444 l 0 456 l 0 472 q 114 521 33 521 l 168 521 q 403 756 226 556 q -82 810 57 756 q 0 858 -82 858 q 301 867 174 864 q 513 869 428 869 q 556 914 513 888 l 561 914 q 610 881 581 892 q 626 903 610 903 l 632 903 q 654 869 654 893 l 722 869 q 743 832 743 861 l 711 826 q 765 778 765 786 m 501 614 q 321 472 410 533 q 517 347 397 444 q 508 473 511 407 q 501 614 504 539 z "},"ল":{"ha":763,"x_min":-64,"x_max":796,"o":"m 796 774 l 796 746 q 785 735 793 735 l 714 735 q 710 687 711 707 q 708 653 708 667 l 708 451 q 676 21 708 21 q 638 60 638 21 l 632 60 l 632 49 l 626 49 q 572 397 589 49 q 519 465 540 440 q 485 500 497 490 q 453 364 475 411 q 490 315 453 333 l 485 304 l 496 261 q 458 244 476 244 l 425 244 q 388 267 403 267 l 376 261 l 349 278 l 333 267 q 213 440 218 440 q 169 250 213 410 q 360 207 211 207 l 425 213 l 431 201 q 425 196 425 201 l 458 185 l 458 179 q 425 163 458 168 l 425 157 q 458 151 451 157 q 339 86 458 118 l 289 86 q 28 244 150 86 q 22 278 28 251 q 71 588 71 485 l 71 703 q 153 763 71 747 q 192 703 171 717 q 201 718 192 718 l 207 718 q 229 653 222 718 q 224 632 224 643 q 339 511 232 632 q 343 632 343 592 l 343 681 q 419 740 343 722 l 447 686 l 453 686 l 475 703 l 479 703 q 496 669 496 696 l 496 647 q 561 610 517 647 l 561 746 q 440 755 507 750 q 303 765 372 760 q 167 778 233 771 q 50 792 101 785 q -33 806 -1 799 q -64 822 -64 814 q -4 865 -64 865 q 376 876 4 869 q 768 854 768 872 q 774 833 768 850 q 742 822 749 822 q 768 800 768 808 l 796 774 z "},"শ":{"ha":888,"x_min":22,"x_max":954,"o":"m 954 765 l 954 760 q 910 738 954 746 l 833 754 l 833 394 q 832 260 833 340 q 828 72 831 181 q 806 46 814 46 q 774 83 774 46 q 757 72 772 83 q 686 482 728 72 q 567 650 646 569 q 431 449 438 508 q 501 383 463 383 l 507 383 q 544 449 544 408 q 496 482 544 471 l 496 503 l 528 503 l 496 531 l 496 547 q 507 558 496 558 l 550 558 q 615 503 581 558 q 649 400 644 492 q 539 242 596 242 l 522 242 q 360 340 438 263 q 283 313 324 313 q 207 319 251 313 q 122 343 163 326 q 51 385 81 360 q 22 449 22 411 l 22 465 q 99 613 32 613 q 153 639 133 639 l 153 628 q 136 618 136 628 q 235 579 225 618 q 147 492 147 563 l 147 460 q 201 432 147 446 q 289 536 265 432 l 289 558 q 136 726 289 622 q 60 808 136 736 l 60 814 q 125 868 90 868 l 169 840 l 201 846 q 371 694 360 722 l 381 694 q 474 831 474 813 q 539 857 508 857 q 567 831 539 850 q 583 846 567 838 l 593 840 q 610 846 603 846 q 626 808 626 826 l 626 803 q 621 797 626 797 q 681 715 653 739 l 681 797 q 654 814 654 801 q 714 863 654 863 q 746 885 714 885 q 763 868 746 876 l 910 874 q 932 840 932 864 q 894 831 911 831 q 954 765 954 800 z "},"ষ":{"ha":706,"x_min":-115,"x_max":768,"o":"m 768 765 l 768 739 l 757 722 l 729 728 l 658 728 q 638 167 651 456 q 647 156 647 165 l 632 156 q 647 107 633 125 l 647 101 q 632 85 647 93 q 321 265 618 85 q 119 325 175 325 q 97 319 114 325 q 76 351 92 336 q 60 346 67 346 q 49 363 49 361 l 49 374 q 60 390 60 389 q 15 433 15 390 l 6 428 l 0 439 l 0 444 q 71 493 40 493 l 97 493 q 190 472 140 493 q 304 581 304 515 l 304 586 q 278 640 285 608 q 103 700 225 681 q 60 733 103 719 l 60 744 q 65 760 65 754 q -115 804 -64 776 q -33 853 -115 853 l 103 864 q 114 858 114 864 q 162 863 142 861 q 196 864 182 864 l 511 864 q 561 881 540 864 l 582 864 l 615 864 l 632 875 l 638 875 q 674 863 649 869 q 740 847 700 857 l 746 825 q 713 815 725 815 l 713 804 q 768 765 739 804 m 435 450 l 429 450 q 369 390 429 417 l 369 385 l 528 269 q 474 417 528 417 q 435 450 474 424 m 506 663 l 506 733 l 500 733 q 389 738 429 736 q 338 739 349 739 q 403 640 403 658 l 414 640 l 429 651 l 435 651 q 463 597 450 651 l 511 553 q 507 617 508 589 q 506 663 506 644 z "},"স":{"ha":801,"x_min":-56,"x_max":872,"o":"m 872 765 l 872 733 l 867 722 l 813 728 l 747 728 l 747 592 q 744 369 747 465 q 736 204 742 272 q 757 57 753 163 l 747 36 l 714 42 l 697 31 l 686 31 q 671 57 675 31 l 665 57 l 643 42 l 632 42 l 606 57 q 594 47 604 47 q 535 325 574 238 l 524 325 q 365 51 371 51 l 360 51 q 218 199 297 86 q 0 493 39 418 l 0 504 q 56 542 7 521 l 76 542 q 110 499 83 542 l 136 504 q 251 417 215 417 q 289 439 281 417 l 289 461 q 147 629 147 596 l 147 646 q 197 776 147 699 q 23 798 86 788 q -56 815 -40 808 q 0 864 -56 864 q 317 872 208 869 q 436 875 425 875 q 479 864 456 864 l 632 864 l 649 875 q 665 864 664 864 l 719 864 q 850 831 850 864 l 850 819 q 818 804 818 819 q 872 765 846 804 m 594 739 l 589 739 q 555 740 575 739 q 507 744 535 742 q 490 717 503 717 l 458 739 q 447 728 456 728 q 414 733 440 728 q 306 618 306 676 q 419 444 419 517 q 408 417 408 425 q 414 396 408 413 q 328 308 399 308 l 289 314 q 333 260 321 264 q 464 433 433 372 l 382 564 q 388 607 388 592 q 447 597 439 603 q 458 607 447 607 q 606 467 472 607 q 597 659 600 592 q 594 739 594 726 z "},"হ":{"ha":697,"x_min":-17,"x_max":724,"o":"m 699 68 l 699 63 q 676 46 699 46 q 239 171 540 143 q 119 188 222 181 q 103 182 110 182 q 49 221 86 221 l 49 232 q 60 258 60 250 l 32 258 l 11 292 q 0 303 0 292 q 97 357 31 357 q 381 303 199 357 q 539 482 539 378 q 403 711 539 608 q 267 536 267 567 q 315 499 281 499 q 364 586 328 499 l 369 586 l 381 581 q 397 596 381 588 q 425 536 411 596 q 440 531 440 536 q 338 368 408 368 q 131 515 249 368 q 119 558 119 535 l 119 590 q 207 754 119 639 q -17 803 114 754 q -6 838 -17 825 q 24 856 4 850 q 72 863 44 863 q 135 864 100 864 l 658 864 q 703 825 703 860 l 692 819 l 681 825 l 669 808 q 680 806 671 808 q 699 796 689 803 q 716 778 708 789 q 724 754 724 768 l 724 738 q 713 726 721 726 l 576 726 q 675 519 675 604 q 571 264 675 297 q 544 247 571 251 l 544 238 q 693 122 657 175 l 682 122 l 671 128 l 699 68 z "},"ড়":{"ha":731,"x_min":-103,"x_max":779,"o":"m 539 -50 l 517 -72 q 528 -82 528 -75 q 408 -149 528 -149 l 403 -149 q 257 -87 276 -149 l 261 -60 q 224 -22 233 -60 q 213 -11 213 -22 l 213 0 q 261 39 213 7 q 267 33 267 39 l 278 39 q 500 -22 318 10 q 539 -44 500 -43 l 539 -50 m 22 381 q 41 492 31 449 q 65 561 51 536 q 96 595 79 586 q 132 604 113 604 q 126 571 132 597 l 126 565 l 132 565 q 147 593 135 593 q 158 571 158 578 q 143 483 158 560 l 153 478 q 145 427 147 447 q 143 397 143 407 q 501 151 143 224 l 513 151 q 515 272 513 214 q 524 386 518 331 q 333 239 360 239 q 294 282 324 282 l 294 293 l 311 321 l 311 326 q 279 342 279 326 l 279 369 q 263 381 263 369 q 279 397 268 381 q 283 756 283 685 q -103 811 -54 779 q 7 865 -103 865 q 230 866 147 865 q 359 867 313 867 q 425 869 406 868 q 458 872 444 871 q 490 873 472 872 q 550 874 507 874 q 751 857 751 874 q 757 840 751 850 q 719 831 732 831 q 764 798 749 815 q 779 754 779 781 l 763 743 l 746 743 q 568 735 650 735 q 500 736 532 735 q 436 740 468 738 q 415 500 429 576 l 421 500 q 583 653 489 539 l 589 653 q 632 625 632 635 l 654 658 l 665 658 q 688 619 688 650 l 688 588 q 708 549 708 588 q 649 38 689 549 q 622 15 644 38 l 611 15 q 510 25 569 15 q 385 54 450 35 q 255 103 319 74 q 138 174 190 133 q 54 265 86 214 q 22 381 22 317 z "},"ঢ়":{"ha":614,"x_min":-67,"x_max":675,"o":"m 557 218 q 279 -76 488 44 l 263 -76 q 225 -28 263 -56 l 225 -22 l 242 0 l 242 6 q 208 21 208 6 l 208 49 q 193 60 193 49 l 471 250 q 519 272 471 261 q 540 228 519 240 q 546 233 540 233 l 557 218 m 592 525 l 592 504 q 461 292 586 429 q 333 194 408 249 q 161 74 258 140 q 129 49 133 49 l 118 49 q 101 86 106 49 l 92 81 q 75 103 83 81 l 92 136 q 64 151 64 136 l 64 179 q 47 185 57 179 q 85 232 57 217 q 61 520 69 392 q 53 749 53 649 q -67 793 7 749 q 69 853 -67 853 q 118 868 111 868 l 124 868 l 124 858 q 194 863 164 861 q 243 864 224 864 l 379 864 q 401 868 390 864 q 422 864 411 864 l 625 864 q 653 836 633 864 q 619 819 653 825 l 619 808 q 647 797 647 808 q 642 793 642 797 q 675 743 675 793 q 658 726 667 743 l 625 732 q 413 733 517 732 q 206 738 310 735 l 206 732 q 203 511 206 618 q 194 303 200 404 q 461 536 438 449 l 461 542 q 385 564 407 564 l 347 564 q 314 493 314 524 q 271 460 279 493 l 271 454 q 243 493 243 463 l 243 525 q 308 672 269 672 q 401 700 311 693 q 549 613 503 700 q 592 525 575 613 z "},"য়":{"ha":706,"x_min":-115,"x_max":768,"o":"m 561 879 l 582 864 l 615 864 q 632 874 618 864 l 636 874 q 674 863 647 869 q 740 847 700 857 q 746 825 740 842 q 713 814 721 814 l 713 803 q 768 765 739 803 l 768 738 l 757 722 l 729 726 l 658 726 q 650 451 656 590 q 636 167 644 313 q 647 156 647 164 l 632 156 q 647 106 633 125 l 647 101 q 632 85 647 93 q 321 264 618 85 q 119 324 175 324 q 97 318 103 318 q 76 351 90 336 q 60 346 67 346 q 49 363 49 361 l 49 374 l 60 389 q 15 433 15 389 l 6 428 l 0 439 l 0 444 q 71 493 40 493 l 97 493 q 190 471 140 493 q 242 494 221 482 q 276 523 263 507 q 298 559 289 539 q 315 607 307 579 q 103 700 206 700 q 60 732 103 718 l 60 743 q 65 760 65 753 q -115 803 -67 776 q -33 853 -115 853 l 103 864 q 114 858 114 864 q 162 863 142 861 q 196 864 182 864 l 511 864 q 561 879 539 864 m 338 738 q 408 629 408 650 l 429 651 l 435 651 q 457 613 457 642 q 456 602 457 610 q 451 581 454 594 q 468 564 460 581 l 468 553 q 369 389 468 454 l 369 383 l 528 269 q 511 509 517 394 q 506 732 506 624 l 500 732 q 389 736 429 735 q 338 738 349 738 m 174 258 q 435 106 360 210 l 435 101 l 414 101 l 414 96 q 429 46 414 88 l 403 31 q 185 96 286 79 q 142 128 185 114 l 142 139 l 151 161 q 103 199 113 161 q 92 210 92 199 q 174 258 124 258 z "},"ৎ":{"ha":590,"x_min":22,"x_max":568,"o":"m 511 -218 l 503 -212 q 494 -175 500 -211 l 478 -210 q 469 -215 474 -215 q 457 -190 460 -215 q 453 -97 454 -165 q 404 31 449 -61 q 101 357 397 121 q 41 451 60 404 q 22 549 22 497 q 42 641 25 596 q 88 732 60 686 l 151 833 q 267 960 254 960 l 268 960 l 281 958 q 553 715 553 788 q 549 701 553 707 q 546 689 546 696 q 568 649 546 672 q 556 613 568 631 q 516 572 544 594 q 442 521 488 549 q 331 456 397 493 q 293 425 313 425 q 286 426 289 425 l 282 429 q 274 467 278 431 l 257 471 q 261 507 261 492 q 249 540 261 533 q 254 558 254 550 q 244 575 254 569 l 249 579 q 383 661 268 611 l 386 667 q 257 767 313 731 l 222 711 q 176 569 176 638 q 219 443 176 503 q 519 81 474 215 q 551 -99 551 -35 q 536 -168 551 -144 l 526 -175 q 511 -218 521 -201 z "},"ং":{"ha":639,"x_min":-15,"x_max":650,"o":"m 650 60 l 650 54 l 644 54 l 606 88 q 650 -6 650 22 q 639 -17 647 -17 q 454 119 614 -17 q 94 240 268 240 q 40 272 74 268 l 40 283 l 46 311 q 1 343 1 311 q -15 354 -15 343 q 94 408 18 408 q 210 384 136 408 q 365 315 283 360 q 524 205 447 269 q 650 60 601 140 m 596 621 q 368 376 539 376 l 363 376 q 193 490 297 376 q 165 544 165 503 l 165 578 q 253 774 165 671 q 275 785 268 785 l 286 779 q 383 807 331 807 q 553 714 506 807 q 596 621 596 688 m 374 681 l 318 539 l 329 533 q 465 638 465 557 q 374 681 460 660 z "},"ঃ":{"ha":539,"x_min":54,"x_max":485,"o":"m 485 711 q 256 467 428 467 l 250 467 q 81 581 185 467 q 54 635 54 593 l 54 668 q 142 864 54 761 q 163 875 156 875 l 174 869 q 272 897 218 897 q 440 804 393 897 q 485 711 485 776 m 485 226 q 397 36 485 163 q 256 -18 319 -18 l 250 -18 q 86 90 186 -18 q 54 139 54 110 l 54 183 q 142 379 54 276 q 163 390 156 390 l 174 385 q 272 413 218 413 q 440 319 393 413 q 485 226 485 292 m 261 771 l 207 629 l 217 625 q 353 728 353 649 q 261 771 347 750 m 261 286 l 207 144 l 217 139 q 353 243 353 163 q 261 286 347 265 z "},"ঁ":{"ha":0,"x_min":-406,"x_max":118,"o":"m 118 1139 q -78 954 50 954 l -106 954 q -392 1132 -272 954 q -406 1210 -406 1175 l -406 1213 q -371 1238 -401 1224 l -353 1238 q -332 1201 -353 1218 q -321 1217 -332 1217 q -289 1135 -314 1214 q -101 1054 -235 1054 l -85 1054 q 75 1189 15 1054 q 86 1194 86 1189 l 92 1194 q 107 1163 107 1190 l 107 1149 q 118 1139 118 1149 m 18 1256 q -131 1096 -17 1096 l -135 1096 q -243 1171 -176 1096 q -261 1206 -261 1176 l -261 1228 q -204 1354 -261 1286 q -190 1361 -194 1361 l -183 1358 q -119 1375 -154 1375 q -10 1315 -40 1375 q 18 1256 18 1296 m -126 1294 l -162 1201 l -154 1199 q -67 1265 -67 1213 q -126 1294 -71 1281 z "},"া":{"ha":243,"x_min":-99,"x_max":313,"o":"m 313 778 l 313 756 q 290 739 313 739 q 196 756 238 739 q 140 -32 181 -32 l 140 -37 q 108 1 108 -37 l 92 -10 l 86 -10 q 54 636 54 25 l 54 668 q 53 714 54 686 q 49 778 51 742 q -99 826 -12 778 q -83 852 -93 843 q -58 865 -72 861 q -25 869 -43 869 l 69 869 q 97 875 88 869 l 129 869 l 275 869 l 290 843 l 290 838 q 281 826 288 826 q 275 832 281 832 q 264 815 275 831 q 313 778 281 815 z "},"ি":{"ha":243,"x_min":-103,"x_max":1476,"o":"m 1476 1033 q 1465 1022 1474 1022 l 1460 1022 q 1242 1099 1444 1022 q 807 1181 993 1181 l 708 1181 q 76 1022 426 1181 q 186 864 186 882 l 260 864 l 275 843 l 275 838 q 264 826 272 826 q 260 832 264 832 q 249 815 260 831 q 297 778 265 815 l 297 756 q 275 739 297 739 l 196 750 l 196 744 q 142 -33 183 -33 l 142 -39 q 110 0 110 -39 l 93 -11 l 88 -11 q 54 625 54 24 l 54 663 q 50 772 54 699 q -97 821 -11 772 q -58 860 -87 856 q 17 864 -28 864 l 28 864 l 28 869 q -76 957 -10 908 q -97 1006 -76 986 l -97 1017 l -82 1039 q -97 1060 -97 1039 l -92 1088 q -103 1099 -103 1088 q 267 1267 -47 1157 q 632 1322 479 1322 q 643 1328 643 1322 l 671 1322 l 725 1322 q 1460 1088 1050 1322 l 1471 1065 q 1454 1060 1461 1060 q 1476 1033 1454 1056 z "},"ী":{"ha":243,"x_min":-360,"x_max":365,"o":"m 365 771 l 365 749 q 344 733 365 733 q 290 738 326 733 q 196 749 254 742 l 196 743 q 142 -32 181 -32 l 142 -37 q 108 0 108 -37 l 92 -11 l 86 -11 q 54 624 54 25 l 54 678 q 15 776 54 776 q -99 819 -40 783 q -58 860 -87 856 q 15 864 -29 864 l 75 864 q 174 961 118 864 q 190 1017 190 988 q 54 1157 190 1100 q 21 1163 28 1157 q -268 1021 -133 1163 q -274 1026 -268 1026 l -274 1017 l -268 1006 q -289 961 -289 1003 l -294 961 q -300 978 -300 971 l -311 972 l -317 972 q -328 1000 -317 1000 l -328 989 l -333 989 q -360 1026 -342 989 q -164 1244 -360 1146 q 32 1272 -115 1263 q 349 1026 258 1272 l 349 989 q 304 869 349 933 l 304 864 l 300 858 l 322 858 q 344 836 331 858 l 344 831 q 333 819 342 819 q 328 825 333 825 q 317 810 328 824 q 365 771 335 810 z "},"ু":{"ha":0,"x_min":-615,"x_max":464,"o":"m -444 -67 q -218 -131 -319 -99 q -192 -17 -192 -69 q -218 79 -192 36 q -175 96 -210 96 l -165 96 q -154 94 -161 96 q -126 115 -150 108 l -108 99 q -72 113 -81 113 q -67 103 -69 113 q -62 83 -64 94 q -60 60 -61 72 q -60 44 -60 49 q -117 -167 -60 -44 q 65 -247 -10 -206 q 414 -486 274 -358 q 464 -551 414 -504 l 447 -562 l 436 -562 q 404 -540 410 -540 q 419 -579 411 -565 l 410 -585 q 235 -467 308 -514 q 98 -386 163 -419 q -31 -327 33 -353 q -179 -274 -96 -301 l -174 -285 l -174 -296 q -353 -508 -235 -453 l -386 -514 q -414 -503 -414 -514 q -429 -508 -424 -508 q -610 -361 -610 -457 l -615 -328 q -601 -205 -604 -256 q -588 -122 -597 -154 q -559 -76 -579 -90 q -494 -61 -539 -61 q -444 -67 -468 -61 m -310 -236 q -435 -203 -335 -226 q -457 -361 -457 -290 q -446 -372 -457 -372 l -435 -372 q -310 -236 -358 -318 z "},"ূ":{"ha":0,"x_min":-553,"x_max":629,"o":"m 629 -637 q 613 -649 629 -649 q 413 -555 581 -637 q -62 -317 244 -472 l -68 -317 q -281 -492 -146 -492 q -499 -371 -385 -492 q -553 -294 -553 -329 q -226 75 -482 -85 q -156 140 -226 115 q -122 101 -156 136 q -128 96 -128 101 l -111 96 q -101 113 -111 113 l -90 113 q -79 101 -79 110 l -79 85 q -96 47 -79 65 l -90 19 q -390 -306 -301 -93 q -325 -339 -390 -326 q -178 -240 -224 -339 q -199 -218 -186 -240 l -199 -208 l -189 -192 q -210 -132 -210 -167 q -150 -115 -197 -119 q -42 -197 -124 -131 q 306 -392 144 -297 q 607 -578 467 -486 q 618 -600 607 -585 l 618 -606 l 607 -606 q 629 -637 607 -611 z "},"ৃ":{"ha":0,"x_min":-525,"x_max":139,"o":"m -171 129 q -161 130 -165 129 q -153 131 -157 131 q -74 54 -74 131 q -74 45 -74 50 q -75 36 -75 40 q -189 -50 -146 -17 q -250 -94 -232 -83 q -94 -169 -164 -129 q 28 -256 -25 -208 l 61 -285 q 139 -392 139 -354 q 131 -412 139 -404 q 8 -354 67 -407 q -365 -201 -236 -201 q -381 -202 -374 -201 q -396 -204 -389 -203 q -406 -194 -403 -200 q -424 -189 -408 -189 q -436 -192 -433 -189 q -450 -165 -444 -185 q -476 -175 -469 -175 q -483 -172 -481 -175 l -492 -165 q -496 -157 -496 -161 q -493 -150 -496 -156 l -521 -139 q -525 -124 -525 -131 q -522 -117 -525 -119 l -518 -112 q -432 -87 -499 -92 l -428 -83 q -444 -76 -433 -78 l -449 -72 l -444 -68 q -403 -61 -424 -61 q -389 -62 -396 -61 q -375 -64 -382 -62 l -171 129 z "},"ে":{"ha":415,"x_min":-158,"x_max":672,"o":"m 550 829 q 533 818 550 818 q 544 803 533 817 l 544 786 q 432 736 499 736 l 365 736 q 203 275 365 622 q 154 46 154 161 l 154 40 q 170 -49 154 -6 q 218 -126 186 -93 q 297 -180 250 -160 q 406 -200 343 -200 l 438 -200 q 568 -139 568 -194 l 568 -133 q 481 -47 556 -47 q 446 -76 461 -62 q 421 -101 431 -90 q 406 -96 411 -96 l 406 -79 q 471 40 406 40 l 514 40 q 667 -133 601 40 l 672 -167 q 536 -314 625 -314 q 460 -331 507 -331 l 415 -331 q 40 -79 217 -331 q 18 74 18 -3 l 18 78 q 175 611 18 300 q 219 753 206 686 q 69 768 132 761 q -73 786 -22 778 q -141 801 -124 794 q -158 815 -158 807 q -97 864 -143 864 l 218 864 q 306 900 250 900 q 524 857 469 890 q 550 829 524 846 z "},"ৈ":{"ha":415,"x_min":-351,"x_max":672,"o":"m 426 893 l 425 892 q 525 857 425 894 q 551 829 525 846 q 535 818 551 818 q 546 803 535 817 l 546 786 q 411 736 500 736 l 365 736 q 203 275 365 622 q 154 46 154 161 q 224 -131 154 -62 q 438 -200 293 -200 q 568 -133 568 -194 q 481 -47 556 -47 q 446 -76 461 -62 q 421 -101 431 -90 q 406 -96 411 -96 l 406 -79 q 471 40 406 40 l 514 40 q 667 -133 601 40 l 672 -167 q 536 -314 625 -314 q 460 -331 507 -331 l 415 -331 q 40 -79 217 -331 q 18 76 18 -3 q 175 611 18 300 q 219 753 206 686 q 69 768 132 761 q -73 786 -22 778 q -141 801 -124 794 q -158 815 -158 807 q -97 864 -143 864 l 217 864 q 249 888 231 879 q 253 935 253 908 q 150 1056 253 1018 q 61 1048 110 1050 q -46 1046 13 1046 q -312 1160 -178 1046 q -331 1190 -321 1171 q -351 1236 -340 1210 l -340 1242 l -346 1253 l -346 1274 q -303 1268 -331 1268 l -303 1274 l -292 1274 q -62 1149 -187 1149 q 68 1165 10 1160 q 172 1171 126 1171 q 357 1067 275 1171 q 393 1008 382 1029 q 408 972 404 988 q 412 940 413 956 q 411 894 411 924 q 426 893 415 893 z "},"ো":{"ha":658,"x_min":-158,"x_max":728,"o":"m 550 829 q 533 818 550 818 q 544 803 533 817 l 544 786 q 432 736 499 736 l 365 736 q 203 275 365 622 q 154 46 154 161 l 154 40 q 170 -49 154 -6 q 218 -126 186 -93 q 297 -180 250 -160 q 406 -200 343 -200 l 438 -200 q 568 -139 568 -194 l 568 -133 q 481 -47 556 -47 q 446 -76 461 -62 q 421 -101 431 -90 q 406 -96 411 -96 l 406 -79 q 471 40 406 40 l 514 40 q 667 -133 601 40 l 672 -167 q 536 -314 625 -314 q 460 -331 507 -331 l 415 -331 q 40 -79 217 -331 q 18 74 18 -3 l 18 78 q 175 611 18 300 q 219 753 206 686 q 69 768 132 761 q -73 786 -22 778 q -141 801 -124 794 q -158 815 -158 807 q -97 864 -143 864 l 218 864 q 306 900 250 900 q 524 857 469 890 q 550 829 524 846 m 728 778 l 728 756 q 706 739 728 739 q 611 756 653 739 q 556 -32 596 -32 l 556 -37 q 524 1 524 -37 l 507 -10 l 501 -10 q 469 636 469 25 l 469 668 q 468 714 469 686 q 464 778 467 742 q 317 826 403 778 q 333 852 322 843 q 358 865 343 861 q 390 869 372 869 l 485 869 q 513 875 503 869 l 544 869 l 690 869 l 706 843 l 706 838 q 696 826 703 826 q 690 832 696 832 q 679 815 690 831 q 728 778 696 815 z "},"ৌ":{"ha":663,"x_min":-158,"x_max":801,"o":"m 550 829 q 533 818 550 818 q 544 803 533 817 l 544 786 q 432 736 499 736 l 365 736 q 203 275 365 622 q 154 46 154 161 l 154 40 q 170 -49 154 -6 q 218 -126 186 -93 q 297 -180 250 -160 q 406 -200 343 -200 l 438 -200 q 568 -139 568 -194 l 568 -133 q 481 -47 556 -47 q 446 -76 461 -62 q 421 -101 431 -90 q 406 -96 411 -96 l 406 -79 q 471 40 406 40 l 514 40 q 667 -133 601 40 l 672 -167 q 536 -314 625 -314 q 460 -331 507 -331 l 415 -331 q 40 -79 217 -331 q 18 74 18 -3 l 18 78 q 175 611 18 300 q 219 753 206 686 q 69 768 132 761 q -73 786 -22 778 q -141 801 -124 794 q -158 815 -158 807 q -97 864 -143 864 l 218 864 q 306 900 250 900 q 524 857 469 890 q 550 829 524 846 m 801 819 q 774 808 786 808 l 774 804 q 796 793 796 804 l 796 782 q 715 756 768 756 q 669 760 694 756 q 615 774 643 764 l 615 768 q 610 467 615 596 q 599 251 606 338 q 587 122 593 165 q 578 79 581 79 l 567 74 l 561 74 l 561 85 l 550 79 l 544 79 q 540 111 540 106 l 535 111 l 535 100 l 529 100 q 469 718 479 100 l 469 746 l 333 746 q 315 754 326 754 q 283 743 303 754 l 283 754 l 294 771 l 294 776 q 251 814 251 776 q 240 825 240 814 q 274 851 261 840 q 294 864 288 861 l 479 864 q 567 1038 489 874 q 507 1081 511 1081 q 213 956 238 956 l 181 956 q 122 967 161 956 q 42 1004 82 978 q -29 1072 1 1031 q -60 1174 -60 1113 q -49 1228 -60 1186 q -15 1179 -15 1228 l -11 1179 l -11 1228 l -6 1228 q 33 1157 18 1228 q 147 1060 97 1060 q 431 1190 367 1190 l 496 1201 l 513 1201 q 686 1103 617 1201 l 731 1049 l 731 1038 q 660 864 731 989 l 665 864 q 801 819 769 864 z "},"্":{"ha":0,"x_min":-246,"x_max":228,"o":"m 228 -228 l 228 -233 q 213 -256 214 -233 q 228 -282 226 -256 l 213 -293 l 196 -293 q 77 -256 147 -281 q -87 -194 7 -231 q -197 -140 -144 -181 l -197 -125 l -192 -114 q -240 -69 -217 -114 q -246 -64 -246 -69 q -197 -21 -244 -56 l -186 -21 q 228 -228 -75 -21 z "},"।":{"ha":331,"x_min":133,"x_max":269,"o":"m 219 -4 q 188 35 188 -4 l 171 24 l 165 24 q 133 476 143 47 q 135 516 133 485 q 140 583 136 547 q 149 651 143 619 q 165 694 156 683 l 171 694 l 188 683 q 219 722 188 722 l 219 717 q 260 488 247 717 q 269 356 269 449 l 269 283 q 267 193 269 242 q 258 101 264 144 q 243 30 253 58 q 219 1 233 1 l 219 -4 z "},"॥":{"ha":538,"x_min":133,"x_max":475,"o":"m 219 -4 q 188 35 188 -4 l 171 24 l 165 24 q 133 476 143 47 q 135 516 133 485 q 140 583 136 547 q 149 651 143 619 q 165 694 156 683 l 171 694 l 188 683 q 219 722 188 722 l 219 717 q 260 488 247 717 q 269 356 269 449 l 269 283 q 267 192 269 242 q 258 101 264 143 q 243 30 253 58 q 219 1 233 1 l 219 -4 m 425 -4 q 393 35 393 -4 l 376 24 l 371 24 q 339 476 349 47 q 340 516 339 485 q 345 583 342 547 q 355 651 349 619 q 371 694 361 683 l 376 694 l 393 683 q 425 722 393 722 l 425 717 q 465 488 453 717 q 475 356 475 449 l 475 283 q 472 193 475 242 q 464 101 469 144 q 449 30 458 58 q 425 1 439 1 l 425 -4 z "},"ৗ":{"ha":247,"x_min":-475,"x_max":386,"o":"m 386 819 q 358 808 371 808 l 358 804 q 381 793 381 804 l 381 782 q 300 756 353 756 q 253 760 279 756 q 200 774 228 764 l 200 768 q 195 467 200 596 q 184 251 190 338 q 172 122 178 165 q 163 79 165 79 l 151 74 l 146 74 l 146 85 l 135 79 l 129 79 q 125 111 125 106 l 119 111 l 119 100 l 114 100 q 54 718 64 100 l 54 746 l -82 746 q -100 754 -89 754 q -132 743 -112 754 l -132 754 l -121 771 l -121 776 q -164 814 -164 776 q -175 825 -175 814 q -141 851 -154 840 q -121 864 -128 861 l 64 864 q 151 1038 74 874 q 92 1081 96 1081 q -203 956 -178 956 l -235 956 q -294 967 -254 956 q -374 1004 -333 978 q -444 1072 -414 1031 q -475 1174 -475 1113 q -464 1228 -475 1186 q -431 1179 -431 1228 l -426 1179 l -426 1228 l -421 1228 q -382 1157 -397 1228 q -268 1060 -318 1060 q 15 1190 -49 1190 l 81 1201 l 97 1201 q 271 1103 201 1201 l 315 1049 l 315 1038 q 244 864 315 989 l 250 864 q 386 819 354 864 z "},"়":{"ha":0,"x_min":-243,"x_max":100,"o":"m -161 63 q 100 -90 25 14 l 100 -94 l 79 -94 l 79 -100 q 94 -150 79 -108 l 68 -165 q -150 -100 -49 -117 q -193 -68 -150 -82 l -193 -57 l -183 -35 q -232 3 -222 -35 q -243 14 -243 3 q -161 63 -211 63 z "},"৺":{"ha":682,"x_min":13,"x_max":619,"o":"m 315 414 q 78 476 204 414 q 13 557 22 526 q 35 603 13 572 l 54 614 q 99 588 67 593 q 94 600 94 594 q 101 611 94 607 q 186 543 113 611 q 278 521 229 521 q 438 571 351 521 q 585 996 529 622 q 593 1008 593 1001 q 604 1014 599 1013 q 617 1000 617 1014 l 615 986 q 619 968 615 975 l 619 940 q 496 461 619 526 q 315 414 411 414 m 326 585 q 214 660 281 585 q 196 694 196 665 l 196 717 q 253 843 196 775 q 267 850 263 850 l 274 847 q 338 864 303 864 q 447 804 417 864 q 475 744 475 785 q 326 585 440 585 m 303 688 q 390 754 390 701 q 331 783 386 769 l 294 690 l 303 688 z "},"঍":{"ha":721,"x_min":74,"x_max":868,"o":"m 75 860 q 87 922 75 894 q 115 967 99 949 q 149 994 132 985 q 175 1003 165 1003 l 206 1003 q 292 890 272 1003 q 250 842 292 851 l 233 842 l 215 846 l 215 853 q 233 860 222 853 l 233 872 l 206 869 l 206 876 q 238 892 226 876 q 250 907 249 907 l 250 914 q 240 918 246 914 l 240 914 q 208 931 221 931 l 192 931 q 140 879 146 931 q 185 769 140 822 q 401 736 185 736 q 535 738 464 736 q 686 746 606 740 q 713 732 713 742 q 707 725 713 725 q 710 715 707 724 q 693 697 710 703 l 707 685 l 707 681 q 682 660 690 660 q 689 653 682 653 q 628 643 689 643 l 600 643 q 467 639 518 643 q 381 643 422 643 q 215 655 274 643 q 140 690 157 667 q 91 771 108 735 q 75 835 74 807 l 75 860 m 89 886 l 89 872 l 92 872 l 92 886 l 89 886 m 260 872 q 247 860 247 864 q 264 872 260 860 l 260 872 m 306 914 q 481 1096 347 1096 l 493 1096 q 590 979 563 1096 q 507 907 590 907 l 504 907 q 439 965 439 939 l 439 969 q 456 976 446 969 l 460 976 l 483 958 q 535 982 535 960 q 507 1017 535 996 l 493 1017 q 381 935 381 996 q 428 863 381 863 q 503 863 443 863 q 668 865 563 864 q 703 869 671 865 q 707 865 703 865 q 710 869 707 869 l 717 865 l 717 869 q 741 870 721 869 q 785 869 761 871 q 833 863 810 868 q 868 846 857 857 q 861 839 868 839 q 836 814 861 814 l 843 801 l 843 794 q 813 781 833 781 l 817 769 l 586 769 q 531 768 560 769 q 467 767 501 767 q 350 794 381 767 q 306 914 306 856 z "},"঎":{"ha":721,"x_min":-157,"x_max":636,"o":"m 636 860 l 636 835 q 619 772 636 807 q 571 690 603 736 q 495 654 554 667 q 331 643 436 642 q 244 639 286 643 q 111 643 192 643 l 83 643 q 21 653 21 643 q 28 660 28 653 q 4 681 18 660 l 4 685 l 18 697 q 1 715 1 703 q 4 725 4 724 q -3 732 -3 725 q 25 746 -3 742 q 175 738 104 740 q 310 736 246 736 q 526 769 526 736 q 571 879 571 822 q 519 931 563 931 l 501 931 q 471 914 488 931 l 471 918 q 461 914 464 914 l 461 907 q 474 892 463 907 q 506 876 485 876 l 506 869 l 478 872 l 478 860 q 494 853 488 853 l 494 846 l 478 842 l 461 842 q 419 890 419 851 q 506 1003 436 1003 l 536 1003 q 632 890 592 1003 q 636 860 636 878 m 622 886 l 618 886 l 618 872 l 622 872 l 622 886 m 450 872 l 447 872 q 464 860 449 860 q 450 872 464 864 m 406 914 q 361 794 406 856 q 244 767 331 767 q 181 768 210 767 q 125 769 151 769 l -106 769 l -101 781 q -133 794 -124 781 l -133 801 l -126 814 q -150 839 -150 814 q -157 846 -157 839 q -122 863 -146 857 q -74 869 -99 868 q -30 870 -50 871 q -6 869 -10 869 l -6 865 l 1 869 q 4 865 4 869 q 8 869 8 865 q 42 865 38 865 q 208 863 149 864 q 282 863 268 863 q 331 935 331 863 q 217 1017 331 996 l 203 1017 q 176 982 176 996 q 228 958 176 960 l 251 976 l 254 976 q 272 969 265 969 l 272 965 q 207 907 272 939 l 203 907 q 121 979 121 907 q 217 1096 147 1096 l 231 1096 q 406 914 361 1096 z "},"০":{"ha":711,"x_min":22,"x_max":672,"o":"m 672 488 l 672 471 q 649 340 672 408 q 583 216 626 272 q 478 124 540 160 q 339 88 417 88 q 241 115 296 88 q 138 189 186 143 q 56 292 89 235 q 22 410 22 350 q 194 799 22 656 q 311 832 242 832 l 406 832 q 428 804 417 829 q 394 793 403 793 l 394 788 q 667 543 585 788 q 672 488 672 517 m 656 504 l 650 504 l 650 476 l 656 476 l 656 504 m 639 593 l 633 593 l 633 582 q 644 515 644 540 l 650 515 l 650 532 q 639 593 639 592 m 383 710 q 178 482 253 710 l 161 388 q 306 232 188 232 l 317 232 q 572 515 540 232 l 572 538 q 411 704 572 643 l 383 710 z "},"১":{"ha":585,"x_min":22,"x_max":561,"o":"m 561 303 q 509 172 539 224 q 431 90 479 121 q 311 48 383 60 q 133 36 239 36 q 22 197 47 36 l 22 236 q 122 453 53 453 l 156 458 l 189 458 q 283 414 251 458 q 339 331 339 396 l 339 308 l 328 308 l 333 242 q 322 231 331 231 l 322 236 q 317 231 317 236 q 250 275 292 231 q 172 303 192 303 l 167 303 q 144 247 150 303 q 206 175 167 175 l 239 175 q 422 264 422 192 l 422 281 q 194 647 422 386 q 172 692 172 678 l 183 686 l 183 692 q 156 775 156 744 l 156 814 q 233 903 156 875 q 250 886 233 886 q 239 853 239 867 l 239 831 q 433 553 239 735 q 561 303 561 401 m 189 814 l 183 814 l 183 808 q 189 769 189 788 l 194 769 l 194 797 q 189 814 189 807 z "},"২":{"ha":657,"x_min":-3,"x_max":747,"o":"m 747 -39 q 736 -50 744 -50 l 731 -50 q 481 39 713 -50 q 125 156 232 156 q 103 133 125 146 q -3 278 38 161 q 58 317 14 294 l 75 317 q 286 267 175 317 q 469 422 469 338 q 331 694 469 525 q 158 528 158 603 q 242 450 190 450 l 258 450 q 286 500 275 450 l 286 522 l 292 522 l 308 511 q 319 539 308 539 q 353 439 336 518 q 286 339 353 349 l 236 339 q 31 506 161 339 q 19 550 19 525 q 269 844 19 711 q 303 867 269 851 q 336 839 303 849 q 369 850 356 850 q 597 450 597 568 q 481 222 597 257 q 408 194 408 200 q 592 104 513 147 q 731 22 672 61 q 736 0 731 10 q 731 -22 731 -10 q 747 -39 736 -22 z "},"৩":{"ha":857,"x_min":-3,"x_max":842,"o":"m 842 442 q 781 164 829 164 q 564 81 694 81 q 469 90 522 81 q 358 117 415 99 q 245 164 301 136 q 142 228 189 192 q 60 312 94 265 q 14 414 26 358 l 19 425 q -3 492 -3 469 l 3 492 q 36 458 28 458 l 36 464 l 31 475 q 42 497 42 475 l 53 497 q 136 369 81 443 q 464 192 213 253 l 508 192 q 615 223 576 204 q 674 269 654 242 q 698 333 693 296 q 703 419 703 369 l 703 442 q 525 742 703 581 q 319 536 338 624 q 381 453 325 497 l 469 453 q 481 503 481 490 q 447 536 472 503 q 458 547 447 547 q 442 597 442 576 l 447 597 q 553 469 536 597 l 558 469 q 564 486 558 476 l 558 514 q 575 481 575 507 l 575 469 q 497 331 542 331 q 463 326 478 328 q 436 325 447 325 l 408 325 q 192 503 328 325 q 181 558 181 550 l 181 575 q 442 875 181 713 l 464 875 q 469 869 464 869 l 492 875 q 508 864 508 868 l 519 869 l 525 869 l 542 858 q 553 869 542 869 l 558 869 q 842 442 842 633 m 303 225 q 236 258 288 225 l 231 258 l 231 253 l 297 219 l 303 219 l 303 225 z "},"৪":{"ha":615,"x_min":22,"x_max":567,"o":"m 567 758 q 483 619 567 725 q 422 575 483 590 q 361 519 422 569 l 372 525 l 378 525 q 344 492 378 518 q 478 303 478 360 l 472 264 l 472 208 q 317 92 472 142 q 233 75 317 75 q 28 247 108 75 q 26 286 28 257 q 22 364 25 315 q 128 486 22 406 q 28 703 28 554 q 100 864 64 864 q 217 886 129 879 q 472 758 403 886 l 494 742 q 528 786 528 775 l 539 786 l 539 775 q 506 731 511 731 q 511 714 511 721 l 517 714 q 539 742 517 729 q 544 736 539 736 q 556 758 556 750 l 567 758 m 217 725 l 156 725 l 156 697 q 256 569 182 647 q 389 664 372 639 q 217 725 324 725 m 217 397 l 211 397 q 122 319 144 350 l 122 292 q 261 214 196 214 q 350 247 350 231 q 217 397 338 297 z "},"৫":{"ha":713,"x_min":1,"x_max":690,"o":"m 690 493 q 557 204 629 456 q 501 82 531 82 q 129 210 268 118 q 1 482 1 329 q 85 749 1 615 q 40 838 85 789 l 40 849 q 96 888 50 869 l 113 888 q 185 843 149 843 q 340 776 232 776 q 424 843 383 843 l 451 804 l 479 826 l 485 826 q 501 799 497 826 l 485 771 q 529 732 485 760 q 496 721 504 721 l 496 715 l 518 715 l 518 688 q 329 488 447 688 l 329 482 q 363 454 361 454 l 368 454 q 540 571 496 454 l 557 582 q 590 571 571 582 q 629 599 599 571 l 635 599 q 657 576 643 599 l 646 560 l 646 554 q 690 493 690 521 m 435 332 l 401 326 q 196 476 313 326 q 190 499 190 486 q 246 649 190 568 l 246 660 q 157 699 229 660 l 157 693 q 129 615 146 669 q 135 599 129 608 l 124 493 q 407 215 124 275 l 435 332 z "},"৬":{"ha":740,"x_min":22,"x_max":711,"o":"m 711 481 q 578 192 650 443 q 522 69 551 69 q 150 197 289 106 q 22 469 22 317 q 183 808 22 685 q 194 797 194 806 q 178 764 178 774 q 222 786 200 786 l 222 781 q 150 603 150 622 q 156 586 150 596 l 144 481 q 428 203 144 263 l 456 319 l 422 314 q 217 464 333 314 q 211 486 211 474 q 422 831 211 599 l 444 831 l 472 792 l 500 814 l 506 814 q 522 786 518 814 l 506 758 l 506 747 q 517 725 517 732 q 367 508 517 693 q 350 469 350 481 q 383 442 382 442 l 389 442 q 561 558 517 442 l 578 569 q 611 558 592 569 q 650 586 619 558 l 656 586 q 678 564 664 586 l 667 547 l 667 542 q 711 481 711 508 z "},"৭":{"ha":582,"x_min":22,"x_max":533,"o":"m 533 649 q 500 160 533 585 q 511 88 507 92 q 506 65 506 78 q 528 -18 506 49 q 511 -29 511 -18 q 460 6 483 -17 q 420 69 438 29 q 393 169 403 110 q 383 315 383 229 l 383 326 q 272 265 319 265 q 28 460 165 265 l 22 499 l 22 538 q 150 749 22 614 q 394 849 207 799 l 400 849 q 422 832 422 839 l 433 838 l 472 838 q 533 649 533 768 m 389 693 q 303 658 344 682 q 228 604 261 635 q 176 542 196 574 q 156 482 156 510 q 244 388 200 388 q 372 515 372 419 l 372 538 l 378 538 l 389 532 q 393 571 392 556 q 394 593 394 586 q 390 663 392 638 q 389 693 389 688 z "},"৮":{"ha":751,"x_min":54,"x_max":776,"o":"m 776 508 q 721 425 754 444 l 726 414 l 726 408 l 721 408 q 704 414 711 414 l 710 403 q 576 375 658 375 l 532 375 l 521 381 l 521 347 q 360 42 521 211 q 249 -3 283 -3 l 232 -3 q 60 125 168 -3 q 54 153 54 132 q 60 285 54 197 q 76 508 65 374 q 60 831 76 640 q 110 869 65 831 l 115 869 q 154 831 115 853 l 165 831 q 176 847 165 847 l 182 847 q 215 569 208 847 l 221 569 q 593 503 244 569 l 638 503 q 743 558 683 503 l 749 547 q 743 531 743 538 q 776 508 776 515 m 504 375 l 493 381 q 499 336 499 360 l 504 336 l 504 375 m 426 386 q 249 408 376 408 l 210 408 q 193 235 199 300 q 188 147 188 171 q 199 136 188 136 l 210 136 q 415 336 329 136 q 421 354 418 342 q 426 386 424 367 z "},"৯":{"ha":850,"x_min":22,"x_max":739,"o":"m 739 443 l 739 410 q 622 188 739 318 q 311 38 536 122 q 283 -1 311 14 l 278 -1 q 233 54 268 -1 l 239 88 q 211 154 224 88 q 417 254 297 207 q 422 288 422 281 q 283 554 422 517 q 183 371 200 468 l 189 371 q 222 382 208 382 l 228 382 q 250 360 228 360 q 294 365 278 365 l 306 349 l 306 343 q 272 326 306 326 l 300 282 l 300 260 q 250 232 285 232 q 94 271 147 232 q 22 332 22 292 q 289 676 22 594 q 500 549 392 676 q 539 371 539 476 q 528 326 528 349 l 528 310 q 622 471 622 367 l 622 476 q 494 788 622 503 q 478 882 478 851 l 478 893 l 483 893 l 494 888 q 500 910 494 900 q 550 832 514 910 q 739 443 739 538 z "},"৳":{"ha":615,"x_min":-224,"x_max":593,"o":"m 310 532 l 315 532 l 321 553 q 310 536 310 553 l 310 532 m 56 649 q 54 701 56 676 q 54 749 53 725 q -79 793 -6 749 q 60 853 -79 851 q 63 926 61 889 q 67 999 64 963 q -17 945 21 971 q -86 896 -56 919 q -190 908 -156 896 q -224 951 -224 919 q -200 1010 -224 974 q -72 1107 -147 1053 q 100 1228 3 1161 q 160 1299 154 1299 l 171 1299 q 186 1260 185 1299 l 197 1265 q 214 1244 206 1265 l 197 1211 q 225 1194 225 1208 l 225 1168 q 242 1163 232 1168 q 176 1069 232 1132 l 196 857 l 353 864 q 369 869 369 864 l 397 864 l 449 864 q 475 836 456 864 q 443 819 475 826 l 443 810 q 469 799 469 810 q 464 793 464 799 q 497 743 497 793 q 481 728 489 743 l 449 733 q 371 735 431 733 q 207 739 311 736 l 207 653 q 208 601 207 625 q 208 553 210 576 l 206 553 q 201 426 204 488 q 196 303 199 364 q 463 536 439 450 l 463 542 q 386 564 408 564 l 349 564 q 315 493 315 526 q 272 461 281 493 l 272 456 q 244 493 244 463 l 244 526 q 310 674 271 674 q 403 700 314 694 q 550 613 504 700 q 593 526 576 613 l 593 504 q 463 292 588 429 q 335 194 410 249 q 163 74 260 140 q 103 3 108 3 l 92 3 q 76 42 78 3 l 65 36 q 49 57 57 36 l 65 90 q 38 107 38 93 l 38 133 q 21 139 31 133 q 86 232 31 169 q 70 408 76 325 q 60 563 64 490 l 56 563 l 56 649 z "},"₹":{"ha":974,"x_min":107,"x_max":893,"o":"m 771 438 q 671 264 754 292 q 644 247 671 251 l 644 238 q 888 74 783 182 l 876 74 l 865 79 l 893 19 l 893 14 q 871 -3 893 -3 q 367 171 640 144 q 247 188 350 181 q 231 182 238 182 q 176 221 214 221 l 176 232 q 188 258 188 250 l 160 258 l 139 292 q 128 303 128 292 q 225 357 158 357 q 481 303 328 357 q 632 440 607 363 l 331 465 q 107 514 238 465 q 117 549 107 536 q 148 567 128 561 q 196 574 168 574 q 258 575 224 575 l 619 575 q 503 711 588 649 l 335 754 q 111 803 242 754 q 122 838 111 825 q 152 856 132 850 q 200 863 172 863 q 263 864 228 864 l 786 864 q 831 825 831 860 l 819 819 l 808 825 l 797 808 q 808 806 799 808 q 826 796 817 803 q 844 778 836 789 q 851 754 851 768 l 851 738 q 840 726 849 726 l 676 726 q 765 575 744 642 l 782 575 q 826 536 826 571 l 815 531 l 804 536 l 793 519 q 803 517 794 519 q 822 507 813 514 q 840 490 832 500 q 847 465 847 479 l 847 449 q 836 438 844 438 l 771 438 z "},"ৰ":{"ha":703,"x_min":-64,"x_max":686,"o":"m 686 765 l 686 733 l 649 711 l 649 521 q 646 253 649 378 q 638 19 643 128 q 621 -3 621 19 l 615 -3 l 599 8 q 593 3 599 3 q 583 42 583 24 l 578 42 q 567 25 578 25 q 528 161 544 56 q 136 314 358 314 l 131 314 q 99 297 110 297 q 43 340 97 310 l 49 374 q 17 411 17 374 l 6 407 l 0 417 l 0 433 q 114 482 33 482 l 169 482 q 425 739 213 506 q 408 744 415 744 q -21 793 -21 769 q -64 815 -64 803 q -4 858 -51 858 q 122 863 44 861 q 306 864 199 864 l 539 864 q 556 875 554 875 l 561 875 q 615 858 574 864 q 638 864 625 864 l 664 831 l 664 815 q 649 804 649 815 q 686 765 656 804 m 343 450 q 321 433 321 442 q 513 308 397 408 l 517 308 l 517 319 q 463 379 517 364 l 343 450 m 501 526 l 501 575 q 457 532 494 575 q 507 499 465 532 l 501 526 z "},"ৱ":{"ha":701,"x_min":-60,"x_max":686,"o":"m 621 -3 l 615 -3 l 599 8 q 593 3 599 3 q 582 42 582 28 l 576 42 q 567 25 576 25 q 528 161 544 56 q 131 314 358 314 q 97 297 110 297 q 43 340 96 311 q 49 374 43 350 q 17 411 17 374 l 6 406 l 0 417 l 0 433 q 114 482 33 482 l 168 482 q 425 738 214 506 q 408 743 415 743 q -17 799 -17 774 q -60 819 -60 808 q 0 864 -47 864 l 539 864 q 561 875 554 875 q 615 858 571 864 q 638 864 625 864 l 664 831 l 664 814 q 647 804 647 814 q 686 765 656 804 l 686 733 l 647 711 q 645 299 647 471 q 638 19 643 128 q 621 -3 621 19 m 517 308 q 508 433 511 367 q 501 575 504 500 q 321 433 404 488 q 511 308 396 410 l 517 308 m 490 25 q 143 93 303 93 q 94 126 125 124 l 94 147 l 106 164 q 56 201 68 164 q 46 218 46 201 q 126 263 82 263 q 517 113 301 263 l 517 96 q 496 90 513 96 q 511 47 511 67 q 490 25 503 47 z "},"◌":{"ha":0,"x_min":0,"x_max":0,"o":""},"ﷺ":{"ha":1331,"x_min":35,"x_max":1301,"o":"m 933 229 q 828 281 878 265 q 726 300 778 296 l 722 299 q 707 308 718 308 l 707 311 q 711 319 711 317 l 703 319 l 697 328 q 694 331 694 328 q 721 346 703 346 q 799 331 746 346 q 843 381 843 351 q 806 444 843 415 q 768 396 768 404 q 781 385 772 385 q 794 410 783 385 l 799 408 q 804 413 799 411 q 811 396 807 413 q 815 394 815 396 q 788 349 807 349 q 775 352 785 349 q 755 363 765 356 q 735 379 744 369 q 726 401 726 389 l 726 411 q 751 456 726 424 q 714 461 732 456 l 714 456 q 707 451 714 451 q 681 456 693 451 q 665 239 678 239 l 665 238 q 657 249 657 238 l 651 244 q 642 428 642 254 l 640 463 l 635 463 l 636 453 q 633 450 636 450 l 614 450 q 613 424 613 443 l 613 372 q 603 254 613 254 q 593 264 593 254 l 592 261 q 575 357 579 261 l 550 386 q 542 349 547 361 q 553 335 542 342 l 550 332 l 554 319 q 535 315 547 315 q 524 321 529 321 l 521 319 l 513 325 l 508 321 q 475 369 476 369 q 464 317 475 364 q 517 304 474 304 q 535 307 524 304 l 536 303 l 535 301 l 543 299 q 535 293 543 294 l 535 292 q 543 289 540 292 q 510 272 543 281 l 497 272 q 425 315 458 272 l 424 325 q 436 410 436 381 l 436 443 l 403 447 l 403 422 q 401 317 403 353 q 397 264 399 281 q 393 244 394 247 l 392 244 l 386 244 l 386 247 l 382 246 l 379 256 q 376 251 379 251 q 368 282 369 251 l 364 376 l 363 422 l 333 433 l 333 297 l 343 276 l 340 274 q 333 281 340 276 l 333 279 q 342 260 338 275 q 336 256 338 256 q 281 311 324 256 q 206 261 256 261 q 170 268 192 261 q 129 286 149 275 q 95 311 110 297 q 81 340 81 325 l 82 340 l 79 349 l 90 349 l 101 339 q 128 320 113 331 q 159 301 143 310 q 183 292 175 292 q 247 356 247 304 q 244 358 244 356 l 246 369 q 201 439 240 403 q 158 379 158 396 q 174 356 158 367 l 183 356 q 201 376 194 356 q 196 381 196 378 l 190 379 l 190 389 l 196 390 q 188 394 196 392 q 193 406 188 404 l 199 406 q 216 397 201 406 q 231 369 231 388 q 193 317 215 317 l 182 317 q 167 321 178 317 q 146 335 157 325 q 126 360 135 344 q 118 396 118 375 q 150 454 118 415 l 144 456 q 71 467 100 456 q 97 479 71 475 q 160 486 122 483 q 238 490 197 489 q 311 490 279 490 q 321 486 313 486 l 340 486 q 346 478 346 485 q 340 475 343 475 q 343 471 340 471 l 361 471 l 361 478 q 378 501 361 490 q 383 496 381 499 q 388 492 385 493 l 393 490 q 396 497 393 497 q 403 483 403 497 q 435 487 406 485 q 521 489 464 489 q 578 488 556 489 q 614 486 601 488 q 634 487 617 488 q 654 489 651 486 q 671 488 658 488 q 703 486 683 488 l 706 483 q 774 485 713 485 q 808 522 790 488 l 810 535 q 789 558 803 558 q 742 524 764 558 l 740 524 l 742 526 l 740 528 l 736 514 l 726 515 l 729 526 l 721 521 l 715 529 q 719 547 715 538 q 731 567 722 557 q 756 583 740 576 q 797 589 772 589 q 835 572 817 589 q 854 519 854 556 q 842 486 854 507 q 879 485 878 486 q 894 486 883 486 l 894 488 q 879 504 888 494 q 860 525 871 514 l 864 535 q 860 540 860 535 l 861 547 q 858 550 858 547 q 883 565 863 554 q 934 585 904 575 q 998 604 964 596 q 1061 613 1032 613 q 1064 614 1064 613 l 1086 613 q 1289 547 1174 613 l 1292 542 l 1288 540 q 1293 532 1288 538 q 1290 529 1293 529 l 1269 536 q 1219 551 1249 543 q 1160 567 1190 560 q 1108 574 1129 574 l 1082 574 q 907 529 1007 574 q 938 486 938 490 l 1135 486 q 1147 475 1147 483 l 1140 475 l 1138 471 q 1147 467 1142 471 q 1153 454 1153 464 q 1150 449 1153 449 l 1113 449 q 1139 390 1139 417 q 1128 337 1139 354 q 1103 315 1118 319 l 1103 314 q 1144 282 1133 297 l 1139 283 l 1146 267 q 1140 261 1146 261 q 986 300 1097 292 l 982 299 q 967 308 976 308 l 969 319 l 963 319 l 957 328 q 953 331 953 328 q 981 346 964 346 q 1058 331 1006 346 q 1101 381 1101 351 q 1064 444 1101 415 q 1026 396 1026 404 q 1040 385 1031 385 q 1054 410 1043 385 l 1058 408 q 1063 413 1058 410 q 1071 396 1067 413 q 1075 394 1075 396 q 1046 349 1064 349 q 1033 352 1043 349 q 1013 363 1024 356 q 994 383 1003 371 q 986 411 986 394 q 1010 456 986 424 l 1007 456 q 1000 451 1007 451 l 986 451 q 963 452 975 451 q 940 454 951 453 l 940 453 q 932 256 938 299 l 938 250 l 931 251 l 939 235 q 933 229 939 229 m 801 589 l 796 592 l 794 590 q 793 599 793 592 l 788 596 l 782 613 q 778 631 779 621 l 747 665 q 736 640 747 663 l 738 628 q 729 619 735 619 l 724 625 l 719 624 q 708 635 717 629 q 699 643 699 640 l 703 656 q 692 670 697 663 q 681 685 688 678 q 658 640 658 650 l 665 639 q 683 658 668 639 l 685 658 q 694 643 690 653 q 672 607 688 607 q 660 610 668 607 q 642 619 651 614 q 627 631 633 624 q 621 647 621 639 q 646 704 624 667 q 621 736 621 722 q 635 773 626 757 q 653 799 644 789 q 667 815 661 810 q 674 819 674 821 l 689 811 q 719 771 701 806 l 722 769 q 732 783 726 769 l 724 808 q 742 815 724 814 q 750 803 743 815 l 757 804 q 763 793 760 800 l 772 775 l 774 775 q 772 805 772 790 q 771 835 771 819 l 769 835 q 628 831 692 831 l 614 832 l 601 835 q 586 618 599 618 l 586 617 q 578 628 578 617 q 572 625 575 625 q 563 807 563 633 l 561 842 l 550 843 q 533 838 533 839 l 533 685 l 531 640 l 532 633 q 529 624 529 625 q 531 621 529 621 l 524 589 l 518 592 l 517 590 q 515 599 515 592 l 510 596 l 504 613 q 500 631 501 621 l 469 665 q 458 640 469 663 l 460 628 q 453 619 457 619 l 446 625 l 442 624 q 431 635 439 629 q 422 643 422 640 l 425 656 q 415 670 419 663 q 403 685 410 678 q 381 640 381 650 l 388 639 q 406 658 390 639 l 408 658 q 417 643 414 650 q 394 607 410 607 q 382 610 390 607 q 365 619 374 614 q 349 631 356 624 q 343 647 343 639 q 368 704 346 667 q 343 736 343 722 q 358 773 349 757 q 375 799 367 789 q 390 815 383 810 q 396 819 396 821 l 411 811 q 442 771 424 806 l 444 769 q 454 783 449 769 l 446 808 q 464 815 446 814 q 472 803 465 815 l 479 804 q 485 793 482 800 l 494 775 l 497 775 q 493 835 493 806 l 492 835 q 350 831 414 831 l 336 832 l 325 835 q 308 618 321 618 l 308 617 q 300 628 300 617 q 294 625 297 625 q 285 807 285 633 l 285 826 q 256 828 278 828 q 255 739 256 775 q 253 683 254 703 q 258 643 256 675 l 256 638 q 242 636 246 638 q 235 643 238 636 l 226 639 q 217 643 221 639 l 214 640 q 197 717 208 692 l 194 717 q 149 642 150 642 q 120 666 136 647 q 89 705 104 685 q 63 742 74 725 q 50 763 51 760 q 65 776 50 769 l 71 776 q 79 765 72 776 l 88 767 q 119 742 108 742 q 129 749 126 742 l 129 754 q 90 800 90 792 q 104 842 90 819 q 35 851 42 849 q 50 865 35 865 l 169 868 q 182 865 178 865 l 224 865 l 228 868 l 233 865 l 282 867 q 297 868 296 867 q 318 867 304 867 q 328 872 321 869 q 449 871 404 871 q 507 869 493 871 l 513 871 l 560 867 q 575 868 574 867 l 594 867 l 606 872 q 726 871 682 871 q 785 869 771 871 l 789 871 l 838 867 q 853 868 851 867 q 869 867 857 867 q 901 865 882 867 l 901 864 q 963 874 957 868 q 968 868 963 869 q 1064 878 1043 868 q 1068 874 1064 875 l 1114 875 q 1156 865 1156 875 q 1147 861 1156 863 l 1147 858 q 1163 847 1154 858 l 1163 840 l 1158 835 q 1107 836 1151 836 l 1107 835 q 1147 753 1147 774 q 1104 681 1147 686 l 1104 678 q 1154 643 1147 660 l 1153 640 l 1154 639 l 1151 638 l 1157 628 q 1153 624 1157 625 q 1123 631 1149 624 q 1069 647 1097 639 q 1019 663 1042 656 q 999 671 1000 669 l 989 669 q 976 681 986 676 l 978 692 l 975 689 q 969 694 969 690 q 1008 710 969 700 q 1054 700 1026 710 q 1107 744 1107 719 q 1072 815 1107 771 q 1043 768 1043 774 l 1046 744 l 1043 732 q 1026 738 1032 735 q 1013 749 1019 742 q 997 771 1007 757 l 971 811 q 942 767 949 782 q 954 751 942 761 l 960 751 q 969 774 969 760 l 968 776 q 972 781 968 781 l 974 775 q 976 783 974 783 q 988 757 982 783 l 990 763 l 993 763 l 993 756 q 968 714 982 714 q 899 763 939 714 l 899 774 q 931 838 899 789 l 911 839 q 906 831 911 831 q 879 835 889 831 q 864 618 875 618 l 864 617 q 856 628 856 617 q 849 625 853 625 q 840 807 840 633 l 839 842 l 828 843 q 811 838 811 839 l 811 685 l 808 640 l 810 633 q 807 624 807 625 q 808 621 807 621 l 801 589 m 1024 -67 q 1017 -64 1019 -67 l 1015 -65 q 1014 -58 1014 -64 l 1010 -61 q 999 -26 1000 -43 l 968 10 q 957 -17 968 8 l 958 -29 q 951 -36 956 -36 l 944 -32 l 940 -33 q 930 -22 939 -26 q 921 -14 921 -17 l 924 -1 q 913 13 918 6 q 901 28 908 21 q 879 -17 879 -7 l 886 -18 q 906 1 889 -18 l 907 1 q 915 -14 913 -3 q 893 -49 911 -49 q 881 -46 889 -49 q 863 -37 872 -43 q 848 -25 854 -32 q 842 -10 842 -18 q 867 47 844 10 q 842 79 842 65 q 856 114 847 97 q 874 142 865 131 q 888 158 882 153 q 894 163 894 164 q 910 154 897 161 q 940 115 922 147 l 943 114 q 953 128 947 114 l 944 151 q 964 160 944 157 q 971 146 965 160 l 979 147 l 996 118 q 994 149 994 133 q 993 178 993 164 l 990 178 q 849 174 913 174 l 835 175 l 824 179 q 808 -37 819 -37 l 808 -40 q 799 -29 799 -40 q 793 -32 796 -32 q 785 150 785 -22 l 783 169 q 754 171 776 171 q 753 82 754 118 q 751 26 753 46 q 757 -14 754 18 l 754 -19 q 750 -19 751 -19 q 746 -18 749 -18 q 740 -21 743 -18 q 733 -14 736 -21 l 725 -18 l 715 -14 l 713 -17 q 696 60 706 38 l 693 60 q 647 -15 651 -15 q 619 10 635 -8 q 588 49 603 29 q 561 86 572 69 q 549 107 550 103 q 564 119 549 113 l 569 119 q 579 108 571 119 l 586 110 q 618 86 610 86 q 628 92 626 86 l 628 97 q 589 144 589 135 q 603 185 589 163 l 564 189 l 568 185 l 568 179 q 561 174 568 174 q 535 179 546 174 q 519 -37 532 -37 l 519 -40 q 511 -29 511 -40 q 506 -32 508 -32 q 496 150 496 -22 l 496 169 q 468 171 490 171 q 466 95 467 133 q 463 17 465 57 l 465 14 l 461 14 q 465 -1 461 4 q 461 -6 465 -4 q 375 43 457 -6 q 319 60 335 60 l 314 58 l 308 68 l 303 65 l 300 71 q 303 78 300 75 q 292 90 292 78 l 289 89 q 288 93 288 90 q 307 107 297 107 q 339 100 322 107 q 371 126 365 111 l 374 138 q 336 160 354 154 q 303 172 318 167 l 304 181 q 256 192 272 185 q 276 206 256 206 q 315 208 296 207 q 318 207 318 208 q 353 208 325 208 l 428 208 q 442 213 435 208 l 447 208 q 461 211 456 208 l 469 210 l 499 210 q 508 213 506 210 q 554 208 517 210 l 668 213 q 681 208 674 208 l 722 208 l 728 213 l 732 208 l 781 210 q 796 213 793 210 q 817 210 810 210 l 826 217 q 1006 213 978 214 l 1011 214 l 1058 210 q 1074 213 1071 210 q 1090 210 1082 211 q 1106 210 1099 210 q 1131 214 1115 214 q 1175 221 1147 214 l 1182 217 l 1228 217 q 1243 219 1239 219 l 1243 217 l 1282 217 q 1297 206 1297 217 l 1290 206 q 1286 203 1290 203 l 1286 201 q 1301 189 1293 201 q 1299 176 1301 176 q 1267 178 1272 176 l 1268 103 q 1260 -32 1269 -32 l 1257 -32 l 1257 -29 l 1251 -31 l 1250 -21 q 1244 -24 1247 -21 q 1231 79 1238 -24 q 1222 88 1222 79 l 1218 85 q 1208 96 1211 96 l 1194 93 l 1193 94 q 1161 50 1172 94 q 1176 29 1163 40 l 1182 29 q 1193 50 1186 29 q 1182 57 1188 54 l 1181 61 q 1188 63 1182 63 l 1188 67 q 1181 74 1183 67 q 1183 79 1181 79 l 1193 79 q 1221 49 1207 79 l 1221 39 q 1188 -12 1208 -12 q 1122 43 1144 3 l 1119 61 q 1149 125 1119 92 q 1129 158 1129 140 l 1129 175 l 1126 174 q 1101 179 1111 174 q 1085 -37 1097 -37 l 1085 -40 q 1076 -29 1076 -40 q 1071 -32 1074 -32 q 1061 150 1061 -22 l 1060 185 l 1049 186 q 1032 181 1032 183 l 1032 28 l 1031 -22 q 1028 -33 1028 -31 l 1029 -35 l 1024 -67 m 213 -29 q 175 -20 199 -29 q 128 5 151 -11 q 87 44 106 21 q 64 94 68 67 l 65 99 q 64 107 64 100 l 72 103 q 75 113 72 113 q 131 55 108 75 q 169 25 153 35 q 196 13 185 15 q 217 11 207 11 l 233 15 q 215 31 228 24 q 208 29 210 31 q 206 32 208 32 l 194 29 q 190 36 190 33 l 181 33 q 176 38 181 35 l 171 36 q 168 43 168 36 q 188 65 172 65 q 210 107 210 83 q 179 156 210 129 q 144 107 144 115 q 151 101 151 103 q 161 108 157 101 q 179 124 165 114 q 189 108 186 108 l 189 104 q 163 67 178 67 l 154 67 l 146 69 q 128 78 138 72 q 112 95 119 85 q 104 119 104 106 q 157 201 104 140 l 163 204 l 167 201 q 169 204 167 204 q 176 197 172 204 l 186 197 q 189 200 186 200 q 228 153 215 169 q 244 131 240 138 q 247 122 249 124 q 246 117 246 119 q 238 65 246 82 l 239 65 q 281 22 281 38 q 273 2 281 11 q 232 -26 265 -7 q 220 -28 225 -28 q 213 -29 215 -29 m 904 279 q 903 338 901 301 q 901 425 904 374 l 900 461 l 893 461 l 893 456 q 890 449 893 449 l 853 449 q 881 390 881 414 q 871 338 881 354 q 844 315 861 321 l 844 314 q 875 298 860 307 q 904 279 890 289 m 640 42 q 676 90 668 74 l 654 126 l 656 138 l 672 135 q 675 138 672 138 q 715 99 678 138 l 713 174 l 688 176 q 683 168 688 168 l 675 174 l 672 171 l 663 172 q 632 142 632 158 q 664 93 664 113 l 661 86 l 663 79 q 639 56 658 56 l 628 57 q 640 42 635 44 m 142 699 q 178 747 169 731 l 154 782 l 157 794 l 172 792 q 176 794 172 794 q 217 756 179 794 l 214 831 l 189 832 q 185 825 186 825 l 176 831 q 172 828 174 828 l 164 829 q 133 797 133 815 q 165 750 165 769 l 163 742 l 164 736 q 140 713 160 713 l 129 714 q 142 699 136 701 m 943 26 q 979 60 965 60 l 996 31 q 982 82 996 72 l 968 97 q 943 61 968 90 l 901 115 q 879 71 879 81 q 882 69 882 71 q 907 89 888 69 q 915 74 914 82 l 914 64 l 943 26 m 444 683 q 479 717 465 717 l 494 688 l 497 688 q 492 722 497 708 q 482 742 488 735 q 472 750 476 749 q 469 751 469 751 q 444 718 468 746 q 427 738 438 725 q 403 771 417 751 q 381 726 381 736 q 383 725 383 726 q 408 746 389 725 q 417 731 414 738 l 415 721 l 444 683 m 722 683 q 757 717 743 717 l 774 688 q 760 738 774 729 l 747 753 q 722 718 747 747 q 705 738 715 725 q 681 771 694 751 q 658 726 658 736 q 661 725 661 726 q 685 746 665 725 q 694 731 690 740 l 693 721 l 722 683 m 510 389 q 509 407 510 397 q 509 425 508 417 q 515 440 510 433 q 532 451 519 447 l 540 438 l 549 442 q 554 435 551 442 q 572 415 557 428 l 572 453 l 433 465 q 440 461 436 464 q 447 454 446 458 l 460 458 q 469 442 464 446 q 472 446 469 446 q 481 428 479 446 l 479 422 q 510 389 482 422 m 397 -21 q 361 -6 378 -11 q 326 6 344 -1 q 329 15 326 10 q 318 19 324 15 q 313 28 313 22 q 335 42 321 42 q 407 0 386 28 l 401 -1 q 406 -17 401 -7 l 397 -21 m 432 44 q 428 110 429 79 q 426 172 426 142 l 381 174 q 400 144 400 150 l 407 150 q 413 139 413 149 l 411 131 q 415 126 413 131 q 389 78 415 96 l 389 76 l 432 44 m 1228 132 l 1228 133 q 1226 143 1226 135 l 1225 179 l 1203 179 l 1196 175 q 1192 176 1192 175 q 1169 150 1169 171 l 1178 135 q 1191 137 1185 136 q 1203 138 1197 138 q 1228 132 1213 138 m 296 349 l 296 351 q 292 449 292 419 l 289 450 q 243 451 250 450 l 243 450 q 279 394 268 421 q 294 349 290 368 l 296 349 m 1017 817 q 1024 831 1017 819 l 1006 832 l 1006 831 q 1014 817 1014 819 l 1017 817 z "},"ॐ":{"ha":828,"x_min":17,"x_max":806,"o":"m 806 168 q 768 114 806 143 q 745 88 764 107 q 697 50 726 69 q 631 15 668 31 q 556 0 594 0 q 93 299 322 0 q 17 451 25 401 l 22 463 q 17 485 17 472 l 17 496 l 28 496 l 49 479 q 60 517 49 517 q 485 168 371 168 q 572 147 519 147 q 632 157 585 147 l 632 163 q 567 218 608 194 l 556 218 l 544 213 q 533 222 543 222 q 490 213 528 222 q 479 239 479 226 l 442 228 q 425 244 442 232 l 414 239 l 408 239 q 397 250 397 239 l 397 261 q 468 343 413 343 q 550 496 550 417 q 436 669 550 574 q 310 496 310 521 q 338 474 338 476 q 408 539 360 474 q 436 556 417 539 q 474 500 463 500 l 474 485 q 376 349 436 349 l 349 349 q 169 485 293 349 q 164 506 164 494 l 164 539 q 354 839 164 619 q 376 849 363 839 q 392 839 388 839 q 403 849 392 849 q 425 822 415 846 l 451 828 l 463 822 q 474 833 463 833 q 675 567 675 603 l 681 528 q 649 343 681 403 l 654 343 q 806 185 806 246 l 806 168 m 674 1139 q 478 954 606 954 l 450 954 q 164 1132 283 954 q 150 1210 150 1175 l 150 1213 q 185 1238 154 1224 l 203 1238 q 224 1201 203 1218 q 235 1217 224 1217 q 267 1135 242 1214 q 454 1054 321 1054 l 471 1054 q 631 1189 571 1054 q 642 1194 642 1189 l 647 1194 q 663 1163 663 1190 l 663 1149 q 674 1139 674 1149 m 574 1256 q 425 1096 539 1096 l 421 1096 q 313 1171 379 1096 q 294 1206 294 1176 l 294 1228 q 351 1354 294 1286 q 365 1361 361 1361 l 372 1358 q 436 1375 401 1375 q 546 1315 515 1375 q 574 1256 574 1296 m 429 1294 l 393 1201 l 401 1199 q 489 1265 489 1213 q 429 1294 485 1281 z "},"ঽ":{"ha":697,"x_min":-17,"x_max":888,"o":"m 888 -46 l 888 -51 q 865 -68 888 -68 q 673 42 767 -4 q 488 118 579 88 q 304 165 396 149 q 119 188 213 182 q 103 182 110 182 q 49 221 86 221 l 49 232 q 60 258 60 250 l 32 258 l 11 292 q 0 303 0 292 q 97 357 31 357 q 381 303 199 357 q 539 482 539 378 q 403 711 539 608 q 267 536 267 567 q 315 499 281 499 q 364 586 328 499 l 369 586 l 381 581 q 397 596 381 588 q 425 536 411 596 q 440 531 440 536 q 338 368 408 368 q 131 515 249 368 q 119 558 119 535 l 119 590 q 207 754 119 639 q -17 803 114 754 q -6 838 -17 825 q 24 856 4 850 q 72 863 44 863 q 135 864 100 864 l 478 864 q 522 825 522 860 l 511 819 l 500 825 l 489 808 q 500 807 493 808 q 518 797 507 806 q 544 772 529 789 q 576 726 558 756 q 675 519 675 604 q 571 264 675 297 q 544 247 571 251 l 544 238 q 882 8 738 154 l 871 8 l 860 14 l 888 -46 z "},"ঀ":{"ha":582,"x_min":22,"x_max":533,"o":"m 383 560 q 392 599 390 583 q 394 621 394 614 q 390 690 392 665 q 389 721 389 715 q 303 686 344 710 q 228 632 261 663 q 176 569 196 601 q 156 510 156 538 q 244 415 200 415 q 281 427 264 421 q 313 442 299 433 l 358 332 q 272 293 311 293 q 28 488 165 293 l 22 526 l 22 565 q 150 776 22 642 q 394 876 207 826 l 400 876 q 422 860 422 867 l 433 865 l 472 865 q 533 676 533 796 q 500 188 533 613 q 511 115 507 119 q 506 93 506 106 q 528 10 506 76 q 511 -1 511 10 q 460 34 483 11 q 420 97 438 57 q 393 197 403 138 q 383 343 383 257 l 383 560 z "},"‌":{"ha":0,"x_min":0,"x_max":0,"o":""},"‍":{"ha":0,"x_min":0,"x_max":0,"o":""},"$":{"ha":707,"x_min":39,"x_max":674,"o":"m 674 290 q 654 197 674 238 q 600 125 635 156 q 517 76 565 94 q 410 54 468 58 l 410 -72 l 300 -72 l 300 50 q 173 65 238 51 q 40 107 108 78 l 40 297 q 197 238 128 254 q 300 219 265 222 l 300 383 l 268 396 q 92 499 144 439 q 39 647 39 558 q 110 802 39 743 q 300 874 182 861 l 300 967 l 410 967 l 410 876 q 528 859 465 874 q 664 815 592 844 l 596 646 q 503 681 549 668 q 410 697 457 694 l 410 544 q 531 489 481 515 q 613 433 581 463 q 659 369 644 404 q 674 290 674 335 m 464 281 q 447 314 464 299 q 410 339 429 329 l 410 226 q 464 281 464 236 m 249 647 q 265 612 249 626 q 300 589 281 597 l 300 693 q 249 647 249 688 z "},"&":{"ha":928,"x_min":36,"x_max":963,"o":"m 963 0 l 693 0 l 629 64 q 369 -12 522 -12 q 233 6 294 -12 q 127 58 171 24 q 60 142 83 93 q 36 253 36 192 q 74 401 36 340 q 189 506 113 461 q 132 595 153 547 q 111 706 111 643 q 183 864 111 806 q 383 922 254 922 q 573 869 501 922 q 644 717 644 817 q 601 578 644 640 q 476 471 557 515 l 622 328 q 652 390 635 347 q 688 501 669 433 l 910 501 q 844 322 883 400 q 765 193 806 244 l 963 0 m 258 271 q 292 197 258 225 q 383 169 325 169 q 497 196 454 169 l 318 375 q 276 329 293 356 q 258 271 258 303 m 446 697 q 428 738 446 724 q 383 753 411 753 q 308 693 308 753 q 356 593 308 646 q 421 641 396 615 q 446 697 446 667 z "},"A":{"ha":854,"x_min":-19,"x_max":874,"o":"m 642 0 l 578 210 l 275 210 l 211 0 l -19 0 l 303 914 l 550 914 l 874 0 l 642 0 m 524 394 l 431 699 q 422 714 425 707 q 426 706 424 710 l 401 626 l 332 394 l 524 394 z "},"B":{"ha":831,"x_min":97,"x_max":779,"o":"m 97 910 l 386 910 q 668 855 579 910 q 757 674 757 800 q 718 535 757 589 q 651 479 689 494 q 739 415 708 460 q 779 271 779 360 q 688 68 779 136 q 442 0 597 0 l 97 0 l 97 910 m 311 385 l 311 182 l 419 182 q 557 289 557 182 q 414 385 557 385 l 311 385 m 311 561 l 407 561 q 508 581 479 561 q 538 647 538 601 q 506 710 538 690 q 397 729 474 729 l 311 729 l 311 561 z "},"C":{"ha":789,"x_min":58,"x_max":763,"o":"m 486 740 q 332 667 386 740 q 278 454 278 593 q 486 171 278 171 q 726 224 576 171 l 726 36 q 468 -12 592 -12 q 58 454 58 -12 q 88 647 58 560 q 174 794 118 733 q 308 889 229 856 q 486 922 388 922 q 763 854 625 922 l 690 675 q 580 723 628 706 q 486 740 532 740 z "},"D":{"ha":915,"x_min":97,"x_max":857,"o":"m 857 464 q 361 0 857 0 l 97 0 l 97 910 l 389 910 q 739 798 621 910 q 857 464 857 686 m 636 460 q 399 729 636 729 l 311 729 l 311 182 l 379 182 q 636 460 636 182 z "},"E":{"ha":692,"x_min":97,"x_max":633,"o":"m 633 0 l 97 0 l 97 910 l 633 910 l 633 729 l 311 729 l 311 564 l 611 564 l 611 383 l 311 383 l 311 182 l 633 182 l 633 0 z "},"F":{"ha":679,"x_min":97,"x_max":631,"o":"m 308 0 l 97 0 l 97 910 l 631 910 l 631 729 l 308 729 l 308 529 l 608 529 l 608 349 l 308 349 l 308 0 z "},"G":{"ha":896,"x_min":58,"x_max":814,"o":"m 433 524 l 811 524 l 811 43 q 640 -1 715 10 q 482 -12 564 -12 q 162 103 265 -12 q 58 457 58 219 q 91 653 58 567 q 185 800 124 740 q 334 891 246 860 q 533 922 422 922 q 814 863 664 922 l 740 686 q 532 740 629 740 q 428 720 475 740 q 349 663 382 700 q 297 572 315 625 q 278 454 278 519 q 333 241 278 311 q 494 171 389 171 q 600 181 553 171 l 600 340 l 433 340 l 433 524 z "},"H":{"ha":944,"x_min":97,"x_max":847,"o":"m 847 0 l 635 0 l 635 382 l 311 382 l 311 0 l 97 0 l 97 910 l 311 910 l 311 565 l 635 565 l 635 910 l 847 910 l 847 0 z "},"I":{"ha":482,"x_min":26,"x_max":456,"o":"m 456 0 l 26 0 l 26 129 l 133 178 l 133 733 l 26 783 l 26 910 l 456 910 l 456 783 l 347 733 l 347 178 l 456 129 l 456 0 z "},"J":{"ha":408,"x_min":-106,"x_max":311,"o":"m 18 -260 q -106 -244 -44 -260 l -106 -58 q -44 -72 -65 -68 q -4 -75 -22 -75 q 76 -41 54 -75 q 97 69 97 -7 l 97 910 l 311 910 l 311 71 q 240 -176 311 -92 q 18 -260 169 -260 z "},"K":{"ha":821,"x_min":97,"x_max":847,"o":"m 846 0 l 600 0 l 374 367 l 311 322 l 311 0 l 97 0 l 97 910 l 311 910 l 311 536 l 361 606 l 604 910 l 847 910 l 528 504 l 846 0 z "},"L":{"ha":700,"x_min":97,"x_max":671,"o":"m 97 0 l 97 910 l 311 910 l 311 182 l 671 182 l 671 0 l 97 0 z "},"M":{"ha":1167,"x_min":97,"x_max":1069,"o":"m 475 0 l 285 617 q 289 531 288 569 q 292 425 292 461 l 292 0 l 97 0 l 97 910 l 375 910 l 576 258 l 790 910 l 1069 910 l 1069 0 l 867 0 l 867 610 l 667 0 l 475 0 z "},"N":{"ha":1006,"x_min":97,"x_max":908,"o":"m 908 0 l 649 0 l 283 632 q 289 529 286 578 q 292 429 292 467 l 292 0 l 97 0 l 97 910 l 356 910 l 718 283 q 713 479 713 415 l 713 910 l 908 910 l 908 0 z "},"O":{"ha":985,"x_min":58,"x_max":926,"o":"m 926 457 q 492 -12 926 -12 q 58 458 58 -12 q 493 924 58 924 q 926 457 926 924 m 282 457 q 492 172 282 172 q 703 457 703 172 q 493 740 703 740 q 282 457 282 740 z "},"P":{"ha":776,"x_min":97,"x_max":735,"o":"m 311 496 l 360 496 q 518 615 518 496 q 383 729 518 729 l 311 729 l 311 496 m 735 621 q 644 392 735 469 q 379 314 554 314 l 311 314 l 311 0 l 97 0 l 97 910 l 393 910 q 735 621 735 910 z "},"Q":{"ha":985,"x_min":58,"x_max":938,"o":"m 926 457 q 717 36 926 133 l 938 -210 l 661 -210 l 499 -12 l 492 -12 q 58 458 58 -12 q 493 924 58 924 q 926 457 926 924 m 282 457 q 492 172 282 172 q 703 457 703 172 q 493 740 703 740 q 282 457 282 740 z "},"R":{"ha":817,"x_min":97,"x_max":843,"o":"m 311 518 l 358 518 q 482 544 446 518 q 518 628 518 569 q 480 706 518 683 q 354 729 442 729 l 311 729 l 311 518 m 311 339 l 311 0 l 97 0 l 97 910 l 368 910 q 647 842 558 910 q 735 632 735 774 q 690 485 735 549 q 578 392 646 421 q 733 161 668 256 q 843 0 797 67 l 600 0 l 390 339 l 311 339 z "},"S":{"ha":682,"x_min":43,"x_max":646,"o":"m 646 260 q 558 58 646 129 q 307 -12 469 -12 q 43 47 171 -12 l 43 251 q 138 210 97 226 q 210 185 178 194 q 268 173 242 176 q 322 169 294 169 q 435 249 435 169 q 428 281 435 267 q 404 309 422 294 q 354 341 386 324 q 271 383 322 358 q 110 492 167 429 q 53 658 53 554 q 134 856 53 789 q 365 922 215 922 q 434 918 401 922 q 500 906 467 914 q 569 884 533 897 q 646 854 604 871 l 574 683 q 501 711 532 700 q 447 728 471 722 q 403 738 424 735 q 360 740 382 740 q 288 719 313 740 q 264 665 264 697 q 267 635 264 647 q 286 609 271 622 q 333 579 301 596 q 422 536 365 563 q 528 476 485 506 q 597 413 571 446 q 635 343 624 381 q 646 260 646 306 z "},"T":{"ha":715,"x_min":10,"x_max":706,"o":"m 465 0 l 250 0 l 250 728 l 10 728 l 10 910 l 706 910 l 706 728 l 465 728 l 465 0 z "},"U":{"ha":935,"x_min":92,"x_max":843,"o":"m 843 910 l 843 326 q 743 78 843 168 q 464 -12 643 -12 q 188 78 285 -12 q 92 328 92 169 l 92 910 l 306 910 l 306 356 q 343 216 306 260 q 468 172 381 172 q 592 217 556 172 q 629 357 629 261 l 629 910 l 843 910 z "},"V":{"ha":804,"x_min":-19,"x_max":824,"o":"m 604 910 l 824 910 l 513 0 l 289 0 l -19 910 l 199 910 l 368 375 l 399 250 q 399 246 399 249 q 397 236 397 238 l 400 246 l 408 213 l 410 208 l 410 207 q 411 210 411 208 q 404 264 411 219 q 408 282 407 272 q 421 327 414 303 q 435 375 428 351 l 604 910 m 403 275 q 399 250 400 260 l 400 246 l 400 249 q 404 264 403 256 q 403 275 403 269 z "},"W":{"ha":1196,"x_min":-18,"x_max":1214,"o":"m 982 0 l 746 0 l 625 472 q 615 509 622 479 q 601 572 608 539 l 589 639 q 586 644 588 644 q 583 539 583 644 l 571 474 l 449 0 l 214 0 l -18 910 l 196 910 l 310 418 q 318 374 314 399 q 326 335 322 354 q 329 225 326 225 l 329 226 q 331 229 331 228 l 339 276 l 340 278 l 340 283 l 342 293 l 368 406 l 499 910 l 697 910 l 829 407 q 846 329 836 381 q 854 279 850 304 q 847 229 847 232 q 849 232 849 231 q 850 239 849 235 l 856 271 q 863 229 860 250 l 857 274 l 885 418 l 1000 910 l 1214 910 l 982 0 m 328 328 q 339 276 333 303 l 340 283 q 336 307 339 290 q 326 378 333 332 l 326 335 q 328 328 326 331 m 856 271 l 857 274 l 856 285 q 854 279 854 282 q 856 271 856 275 z "},"X":{"ha":825,"x_min":-25,"x_max":851,"o":"m 851 0 l 603 0 l 406 321 l 208 0 l -25 0 l 276 469 l -7 910 l 233 910 l 415 607 l 594 910 l 829 910 l 543 460 l 851 0 z "},"Y":{"ha":771,"x_min":-24,"x_max":794,"o":"m 386 564 l 561 910 l 794 910 l 493 353 l 493 0 l 279 0 l 279 347 l -24 910 l 211 910 l 386 564 z "},"Z":{"ha":715,"x_min":15,"x_max":700,"o":"m 700 0 l 15 0 l 15 140 l 426 728 l 28 728 l 28 910 l 689 910 l 689 771 l 279 182 l 700 182 l 700 0 z "},"a":{"ha":746,"x_min":39,"x_max":668,"o":"m 515 0 l 483 81 q 394 13 442 35 q 261 -12 342 -12 q 97 47 156 -12 q 39 215 39 106 q 117 386 39 332 q 354 444 194 440 l 457 447 l 457 464 q 365 553 457 553 q 169 499 296 553 l 97 647 q 374 717 229 717 q 668 464 668 717 l 668 0 l 515 0 m 457 314 l 400 311 q 290 285 324 307 q 256 214 256 263 q 331 150 256 150 q 423 181 389 150 q 457 271 457 213 l 457 314 z "},"b":{"ha":783,"x_min":82,"x_max":742,"o":"m 472 715 q 672 618 603 715 q 742 353 742 521 q 670 83 742 179 q 468 -12 599 -12 q 276 69 346 -12 l 247 0 l 82 0 l 82 968 l 294 968 l 294 735 q 294 710 294 725 q 292 679 293 696 l 289 638 q 472 715 356 715 m 413 540 q 322 505 350 540 q 294 374 294 469 l 294 354 q 324 206 294 247 q 415 165 353 165 q 496 212 467 165 q 525 356 525 258 q 495 496 525 451 q 413 540 465 540 z "},"c":{"ha":636,"x_min":42,"x_max":615,"o":"m 369 -12 q 42 347 42 -12 q 130 626 42 536 q 388 715 218 715 q 615 664 496 715 l 551 494 q 458 528 493 518 q 388 539 422 539 q 258 349 258 539 q 388 165 258 165 q 435 168 413 165 q 481 178 457 171 q 531 200 504 186 q 590 236 557 214 l 590 46 q 540 17 564 29 q 490 -1 515 6 q 435 -10 464 -7 q 369 -12 406 -12 z "},"d":{"ha":782,"x_min":42,"x_max":700,"o":"m 311 -12 q 111 85 181 -12 q 42 350 42 182 q 113 619 42 524 q 315 715 185 715 q 494 643 431 715 q 492 672 493 657 q 488 738 488 707 l 488 968 l 700 968 l 700 0 l 535 0 l 503 78 q 311 -12 442 -12 m 375 163 q 469 199 440 163 q 501 329 499 235 l 501 349 q 472 497 501 456 q 372 538 442 538 q 287 491 317 538 q 257 347 257 444 q 287 207 257 251 q 375 163 317 163 z "},"e":{"ha":731,"x_min":42,"x_max":692,"o":"m 376 557 q 294 524 324 557 q 263 442 265 490 l 490 442 q 459 524 489 490 q 376 557 429 557 m 403 -12 q 137 80 232 -12 q 42 347 42 172 q 129 622 42 528 q 375 715 217 715 q 610 633 529 715 q 692 396 692 550 l 692 292 l 257 292 q 298 191 260 229 q 411 153 336 153 q 470 155 443 153 q 525 164 497 157 q 583 183 553 171 q 653 215 614 194 l 653 42 q 540 0 596 13 q 403 -12 483 -12 z "},"f":{"ha":479,"x_min":10,"x_max":553,"o":"m 483 538 l 325 538 l 325 0 l 113 0 l 113 538 l 10 538 l 10 647 l 113 697 l 113 739 q 172 917 113 860 q 364 974 231 974 q 553 942 444 974 l 496 781 q 385 800 425 800 q 339 781 353 800 q 325 732 325 763 l 325 703 l 483 703 l 483 538 z "},"g":{"ha":697,"x_min":-10,"x_max":697,"o":"m 697 703 l 697 585 l 601 560 q 621 467 621 528 q 542 286 621 350 q 322 222 464 222 l 265 226 q 246 193 246 211 q 333 167 246 167 l 449 167 q 628 118 567 167 q 690 -35 690 69 q 293 -296 690 -296 q 68 -244 146 -296 q -10 -96 -10 -192 q 108 68 -10 39 l 110 68 q 103 78 110 69 q 89 101 97 88 q 74 131 81 115 q 68 163 68 147 q 76 203 68 185 q 94 235 83 221 q 117 260 104 250 q 139 275 129 269 q 105 300 122 282 q 73 344 88 318 q 49 401 58 369 q 40 471 40 433 q 115 652 40 589 q 332 715 190 715 q 365 713 346 715 q 401 709 383 711 q 433 705 419 707 q 449 703 446 703 l 697 703 m 176 -81 q 207 -131 176 -111 q 301 -150 238 -150 q 449 -125 399 -150 q 500 -61 500 -100 q 473 -20 500 -32 q 378 -8 446 -8 l 282 -8 q 206 -29 235 -8 q 176 -81 176 -50 m 243 468 q 265 390 243 418 q 332 363 288 363 q 397 390 376 363 q 417 468 417 417 q 332 576 417 576 q 243 468 243 576 z "},"h":{"ha":813,"x_min":82,"x_max":735,"o":"m 735 0 l 522 0 l 522 408 q 426 540 522 540 q 325 493 356 540 q 294 332 294 446 l 294 0 l 82 0 l 82 968 l 294 968 l 294 761 q 293 724 293 750 q 290 656 293 697 l 289 638 q 478 715 351 715 q 671 649 607 715 q 735 454 735 583 l 735 0 z "},"i":{"ha":376,"x_min":75,"x_max":303,"o":"m 75 864 q 189 968 75 968 q 303 864 303 968 q 275 787 303 815 q 189 758 247 758 q 75 864 75 758 m 294 0 l 82 0 l 82 703 l 294 703 l 294 0 z "},"j":{"ha":376,"x_min":-93,"x_max":303,"o":"m 43 -296 q -93 -278 -47 -296 l -93 -106 q -32 -118 -53 -115 q 7 -121 -11 -121 q 65 -99 47 -121 q 82 -32 82 -78 l 82 703 l 294 703 l 294 -60 q 229 -235 294 -174 q 43 -296 164 -296 m 75 864 q 189 968 75 968 q 303 864 303 968 q 275 787 303 815 q 189 758 247 758 q 75 864 75 758 z "},"k":{"ha":767,"x_min":82,"x_max":794,"o":"m 343 492 l 538 703 l 782 703 l 500 396 l 794 0 l 547 0 l 357 268 l 294 217 l 294 0 l 82 0 l 82 968 l 294 968 l 294 429 l 343 492 z "},"l":{"ha":376,"x_min":82,"x_max":294,"o":"m 294 0 l 82 0 l 82 968 l 294 968 l 294 0 z "},"m":{"ha":1214,"x_min":82,"x_max":1136,"o":"m 714 0 l 503 0 l 503 408 q 415 540 503 540 q 324 493 353 540 q 294 332 294 446 l 294 0 l 82 0 l 82 703 l 249 703 l 271 626 q 343 688 296 663 q 468 715 397 715 q 682 617 629 715 q 763 688 708 660 q 889 715 818 715 q 1075 653 1014 715 q 1136 454 1136 592 l 1136 0 l 924 0 l 924 408 q 835 540 924 540 q 743 499 772 540 q 714 353 714 457 l 714 0 z "},"n":{"ha":813,"x_min":82,"x_max":735,"o":"m 735 0 l 522 0 l 522 408 q 426 540 522 540 q 325 493 356 540 q 294 332 294 446 l 294 0 l 82 0 l 82 703 l 249 703 l 271 626 q 350 689 300 665 q 479 715 408 715 q 672 649 608 715 q 735 454 735 583 l 735 0 z "},"o":{"ha":767,"x_min":42,"x_max":725,"o":"m 258 353 q 288 210 258 256 q 383 164 317 164 q 479 210 450 164 q 508 353 508 256 q 480 496 508 453 q 383 539 451 539 q 287 496 315 539 q 258 353 258 453 m 725 353 q 635 83 725 178 q 382 -12 544 -12 q 241 14 304 -12 q 133 88 178 40 q 65 203 89 136 q 42 353 42 271 q 130 622 42 528 q 385 715 218 715 q 524 689 461 715 q 632 615 588 663 q 701 501 676 568 q 725 353 725 433 z "},"p":{"ha":783,"x_min":82,"x_max":742,"o":"m 468 -12 q 289 56 356 -12 q 292 22 290 39 q 294 -10 294 -3 l 294 -296 l 82 -296 l 82 703 l 258 703 l 281 625 q 472 715 346 715 q 672 621 603 715 q 742 353 742 526 q 670 83 742 179 q 468 -12 599 -12 m 413 540 q 322 505 350 540 q 294 374 294 469 l 294 354 q 324 206 294 247 q 415 165 353 165 q 525 356 525 165 q 413 540 525 540 z "},"q":{"ha":782,"x_min":42,"x_max":700,"o":"m 311 -12 q 111 82 181 -12 q 42 350 42 176 q 113 619 42 524 q 314 715 183 715 q 506 629 438 715 l 519 703 l 700 703 l 700 -296 l 488 -296 l 488 0 q 489 40 488 19 q 492 61 490 50 q 311 -12 429 -12 m 376 160 q 469 196 440 160 q 501 328 499 232 l 501 349 q 472 497 501 456 q 374 538 443 538 q 258 347 258 538 q 286 203 258 247 q 376 160 314 160 z "},"r":{"ha":561,"x_min":82,"x_max":551,"o":"m 474 715 q 551 704 526 715 l 535 507 q 490 515 503 513 q 468 517 478 517 q 340 476 385 517 q 294 357 294 436 l 294 0 l 82 0 l 82 703 l 246 703 l 271 603 q 349 679 299 647 q 474 715 406 715 z "},"s":{"ha":614,"x_min":42,"x_max":581,"o":"m 581 214 q 279 -12 581 -12 q 151 -2 203 -12 q 43 31 99 8 l 43 217 q 119 180 85 193 q 183 160 154 167 q 238 151 213 153 q 285 150 263 150 q 372 194 372 150 q 344 233 372 214 q 235 288 317 253 q 138 334 175 313 q 81 381 101 356 q 52 437 60 406 q 42 513 44 468 q 115 664 42 613 q 324 715 189 715 q 578 654 436 715 l 511 497 q 406 538 449 525 q 321 551 363 551 q 253 522 253 551 q 256 503 253 511 q 273 488 260 496 q 313 467 286 479 q 386 438 339 456 q 481 392 444 414 q 540 343 518 369 q 569 285 561 317 q 581 214 578 254 z "},"t":{"ha":536,"x_min":14,"x_max":510,"o":"m 382 163 q 510 189 429 163 l 510 24 q 328 -12 438 -12 q 156 47 210 -12 q 103 225 103 107 l 103 538 l 14 538 l 14 636 l 119 700 l 174 846 l 314 846 l 314 703 l 503 703 l 503 538 l 314 538 l 314 225 q 382 163 314 163 z "},"u":{"ha":811,"x_min":78,"x_max":729,"o":"m 561 0 l 539 76 q 463 15 513 40 q 332 -12 407 -12 q 140 53 203 -12 q 78 249 78 119 l 78 703 l 289 703 l 289 294 q 385 163 289 163 q 487 210 457 163 q 517 371 517 257 l 517 703 l 729 703 l 729 0 l 561 0 z "},"v":{"ha":703,"x_min":-21,"x_max":722,"o":"m 247 0 l -21 703 l 203 703 l 338 308 q 351 249 344 278 q 369 308 357 276 l 501 703 l 722 703 l 457 0 l 247 0 z "},"w":{"ha":1058,"x_min":-6,"x_max":1064,"o":"m 640 0 l 586 246 l 526 496 l 414 0 l 193 0 l -6 703 l 207 703 l 288 393 q 303 299 297 353 q 310 249 306 275 q 322 317 314 278 l 332 368 l 418 703 l 643 703 l 726 368 q 732 326 728 354 q 742 268 736 299 q 743 258 742 264 q 750 290 746 274 l 772 393 l 856 703 l 1064 703 l 864 0 l 640 0 z "},"x":{"ha":714,"x_min":-21,"x_max":736,"o":"m 218 358 l -10 703 l 235 703 l 357 500 l 481 703 l 725 703 l 496 358 l 736 0 l 490 0 l 357 218 l 224 0 l -21 0 l 218 358 z "},"y":{"ha":703,"x_min":-21,"x_max":722,"o":"m -21 703 l 211 703 l 342 313 q 354 269 349 293 q 369 313 361 292 l 496 703 l 722 703 l 431 -76 q 313 -242 388 -189 q 136 -296 238 -296 q 29 -282 67 -296 l 29 -108 q 115 -121 75 -121 q 194 -94 160 -121 q 244 -10 228 -67 l 253 18 l -21 703 z "},"z":{"ha":603,"x_min":18,"x_max":579,"o":"m 579 0 l 18 0 l 18 128 l 318 535 l 39 535 l 39 703 l 569 703 l 569 565 l 279 168 l 579 168 l 579 0 z "}}}
